<?xml version="1.0" encoding="UTF-8" standalone="no"?>
<!DOCTYPE svg PUBLIC "-//W3C//DTD SVG 1.1//EN"
 "http://www.w3.org/Graphics/SVG/1.1/DTD/svg11.dtd">
<!-- Generated by graphviz version 12.2.1 (20241206.2353)
 -->
<!-- Title: snakemake_dag Pages: 1 -->
<svg width="1207pt" height="1370pt"
 viewBox="0.00 0.00 1206.70 1369.70" xmlns="http://www.w3.org/2000/svg" xmlns:xlink="http://www.w3.org/1999/xlink">
<g id="graph0" class="graph" transform="scale(1 1) rotate(0) translate(4 1365.7)">
<title>snakemake_dag</title>
<polygon fill="white" stroke="none" points="-4,4 -4,-1365.7 1202.7,-1365.7 1202.7,4 -4,4"/>
<!-- 0 -->
<g id="node1" class="node">
<title>0</title>
<path fill="#3b745f" stroke="#d85e56" stroke-width="0" d="M1186.7,-560.27C1186.7,-560.27 1156.7,-560.27 1156.7,-560.27 1150.7,-560.27 1144.7,-554.27 1144.7,-548.27 1144.7,-548.27 1144.7,-536.27 1144.7,-536.27 1144.7,-530.27 1150.7,-524.27 1156.7,-524.27 1156.7,-524.27 1186.7,-524.27 1186.7,-524.27 1192.7,-524.27 1198.7,-530.27 1198.7,-536.27 1198.7,-536.27 1198.7,-548.27 1198.7,-548.27 1198.7,-554.27 1192.7,-560.27 1186.7,-560.27"/>
<text text-anchor="middle" x="1171.7" y="-539.89" font-family="sans-serif" font-size="10.00" fill="white">all</text>
</g>
<!-- 1 -->
<g id="node2" class="node">
<title>1</title>
<path fill="#3b745f" stroke="#5663d8" stroke-width="0" d="M975.8,-662.27C975.8,-662.27 930.53,-662.27 930.53,-662.27 924.53,-662.27 918.53,-656.27 918.53,-650.27 918.53,-650.27 918.53,-638.27 918.53,-638.27 918.53,-632.27 924.53,-626.27 930.53,-626.27 930.53,-626.27 975.8,-626.27 975.8,-626.27 981.8,-626.27 987.8,-632.27 987.8,-638.27 987.8,-638.27 987.8,-650.27 987.8,-650.27 987.8,-656.27 981.8,-662.27 975.8,-662.27"/>
<text text-anchor="middle" x="953.17" y="-641.89" font-family="sans-serif" font-size="10.00" fill="white">solve_model</text>
</g>
<!-- 1&#45;&gt;0 -->
<g id="edge5" class="edge">
<title>1&#45;&gt;0</title>
<path fill="none" stroke="#999999" stroke-width="1.5" d="M987.63,-630.28C1020.55,-616.3 1072.08,-593.84 1115.7,-572.27 1122.64,-568.84 1129.97,-565 1136.94,-561.24"/>
<polygon fill="#999999" stroke="#999999" stroke-width="1.5" points="1137.94,-563.48 1142.91,-557.98 1135.59,-559.18 1137.94,-563.48"/>
</g>
<!-- 30 -->
<g id="node31" class="node">
<title>30</title>
<path fill="#3b745f" stroke="#56d0d8" stroke-width="0" d="M1087.95,-725.27C1087.95,-725.27 1047.18,-725.27 1047.18,-725.27 1041.18,-725.27 1035.18,-719.27 1035.18,-713.27 1035.18,-713.27 1035.18,-701.27 1035.18,-701.27 1035.18,-695.27 1041.18,-689.27 1047.18,-689.27 1047.18,-689.27 1087.95,-689.27 1087.95,-689.27 1093.95,-689.27 1099.95,-695.27 1099.95,-701.27 1099.95,-701.27 1099.95,-713.27 1099.95,-713.27 1099.95,-719.27 1093.95,-725.27 1087.95,-725.27"/>
<text text-anchor="middle" x="1067.56" y="-704.89" font-family="sans-serif" font-size="10.00" fill="white">plot_results</text>
</g>
<!-- 1&#45;&gt;30 -->
<g id="edge59" class="edge">
<title>1&#45;&gt;30</title>
<path fill="none" stroke="#999999" stroke-width="1.5" d="M986.08,-662.15C998.99,-669.39 1014.02,-677.82 1027.57,-685.41"/>
<polygon fill="#999999" stroke="#999999" stroke-width="1.5" points="1026.07,-687.38 1033.37,-688.66 1028.47,-683.1 1026.07,-687.38"/>
</g>
<!-- 31 -->
<g id="node32" class="node">
<title>31</title>
<path fill="#3b745f" stroke="#56d8c1" stroke-width="0" d="M1087.2,-560.84C1087.2,-560.84 1047.93,-560.84 1047.93,-560.84 1041.93,-560.84 1035.93,-554.84 1035.93,-548.84 1035.93,-548.84 1035.93,-535.7 1035.93,-535.7 1035.93,-529.7 1041.93,-523.7 1047.93,-523.7 1047.93,-523.7 1087.2,-523.7 1087.2,-523.7 1093.2,-523.7 1099.2,-529.7 1099.2,-535.7 1099.2,-535.7 1099.2,-548.84 1099.2,-548.84 1099.2,-554.84 1093.2,-560.84 1087.2,-560.84"/>
<text text-anchor="middle" x="1067.56" y="-547.02" font-family="sans-serif" font-size="10.00" fill="white">plot_health</text>
<text text-anchor="middle" x="1067.56" y="-532.77" font-family="sans-serif" font-size="10.00" fill="white">impacts</text>
</g>
<!-- 1&#45;&gt;31 -->
<g id="edge60" class="edge">
<title>1&#45;&gt;31</title>
<path fill="none" stroke="#999999" stroke-width="1.5" d="M973.17,-626.28C978.78,-620.87 984.91,-614.88 990.43,-609.27 1003.67,-595.82 1005.44,-590.93 1019.43,-578.27 1023.94,-574.18 1028.89,-570.07 1033.82,-566.15"/>
<polygon fill="#999999" stroke="#999999" stroke-width="1.5" points="1035.17,-568.2 1039.2,-561.97 1032.17,-564.33 1035.17,-568.2"/>
</g>
<!-- 34 -->
<g id="node35" class="node">
<title>34</title>
<path fill="#3b745f" stroke="#56d88a" stroke-width="0" d="M1098.82,-336.84C1098.82,-336.84 1036.3,-336.84 1036.3,-336.84 1030.3,-336.84 1024.3,-330.84 1024.3,-324.84 1024.3,-324.84 1024.3,-311.7 1024.3,-311.7 1024.3,-305.7 1030.3,-299.7 1036.3,-299.7 1036.3,-299.7 1098.82,-299.7 1098.82,-299.7 1104.82,-299.7 1110.82,-305.7 1110.82,-311.7 1110.82,-311.7 1110.82,-324.84 1110.82,-324.84 1110.82,-330.84 1104.82,-336.84 1098.82,-336.84"/>
<text text-anchor="middle" x="1067.56" y="-323.02" font-family="sans-serif" font-size="10.00" fill="white">plot_crop</text>
<text text-anchor="middle" x="1067.56" y="-308.77" font-family="sans-serif" font-size="10.00" fill="white">production_map</text>
</g>
<!-- 1&#45;&gt;34 -->
<g id="edge67" class="edge">
<title>1&#45;&gt;34</title>
<path fill="none" stroke="#999999" stroke-width="1.5" d="M953.48,-626.3C952.5,-576.9 955.83,-436.78 1019.43,-347.27 1020.47,-345.8 1021.62,-344.39 1022.84,-343.04"/>
<polygon fill="#999999" stroke="#999999" stroke-width="1.5" points="1024.44,-344.9 1027.87,-338.33 1021.09,-341.33 1024.44,-344.9"/>
</g>
<!-- 35 -->
<g id="node36" class="node">
<title>35</title>
<path fill="#3b745f" stroke="#56d89a" stroke-width="0" d="M1092.45,-1273.84C1092.45,-1273.84 1042.68,-1273.84 1042.68,-1273.84 1036.68,-1273.84 1030.68,-1267.84 1030.68,-1261.84 1030.68,-1261.84 1030.68,-1248.7 1030.68,-1248.7 1030.68,-1242.7 1036.68,-1236.7 1042.68,-1236.7 1042.68,-1236.7 1092.45,-1236.7 1092.45,-1236.7 1098.45,-1236.7 1104.45,-1242.7 1104.45,-1248.7 1104.45,-1248.7 1104.45,-1261.84 1104.45,-1261.84 1104.45,-1267.84 1098.45,-1273.84 1092.45,-1273.84"/>
<text text-anchor="middle" x="1067.56" y="-1260.02" font-family="sans-serif" font-size="10.00" fill="white">plot_cropland</text>
<text text-anchor="middle" x="1067.56" y="-1245.77" font-family="sans-serif" font-size="10.00" fill="white">fraction_map</text>
</g>
<!-- 1&#45;&gt;35 -->
<g id="edge69" class="edge">
<title>1&#45;&gt;35</title>
<path fill="none" stroke="#999999" stroke-width="1.5" d="M955.58,-662.17C960.72,-724.41 980.23,-936.98 1019.43,-1108.27 1029.24,-1151.12 1045.83,-1199.41 1056.48,-1228.58"/>
<polygon fill="#999999" stroke="#999999" stroke-width="1.5" points="1054.08,-1229.14 1058.8,-1234.86 1058.68,-1227.44 1054.08,-1229.14"/>
</g>
<!-- 36 -->
<g id="node37" class="node">
<title>36</title>
<path fill="#3b745f" stroke="#56d8c9" stroke-width="0" d="M1092.82,-1096.96C1092.82,-1096.96 1042.3,-1096.96 1042.3,-1096.96 1036.3,-1096.96 1030.3,-1090.96 1030.3,-1084.96 1030.3,-1084.96 1030.3,-1057.57 1030.3,-1057.57 1030.3,-1051.57 1036.3,-1045.57 1042.3,-1045.57 1042.3,-1045.57 1092.82,-1045.57 1092.82,-1045.57 1098.82,-1045.57 1104.82,-1051.57 1104.82,-1057.57 1104.82,-1057.57 1104.82,-1084.96 1104.82,-1084.96 1104.82,-1090.96 1098.82,-1096.96 1092.82,-1096.96"/>
<text text-anchor="middle" x="1067.56" y="-1083.14" font-family="sans-serif" font-size="10.00" fill="white">plot_irrigated</text>
<text text-anchor="middle" x="1067.56" y="-1068.89" font-family="sans-serif" font-size="10.00" fill="white">cropland</text>
<text text-anchor="middle" x="1067.56" y="-1054.64" font-family="sans-serif" font-size="10.00" fill="white">fraction_map</text>
</g>
<!-- 1&#45;&gt;36 -->
<g id="edge73" class="edge">
<title>1&#45;&gt;36</title>
<path fill="none" stroke="#999999" stroke-width="1.5" d="M958.86,-662.07C975.89,-726.79 1034.73,-950.32 1057.48,-1036.76"/>
<polygon fill="#999999" stroke="#999999" stroke-width="1.5" points="1055.09,-1037.31 1059.24,-1043.45 1059.83,-1036.06 1055.09,-1037.31"/>
</g>
<!-- 37 -->
<g id="node38" class="node">
<title>37</title>
<path fill="#3b745f" stroke="#56d892" stroke-width="0" d="M1093.2,-666.84C1093.2,-666.84 1041.93,-666.84 1041.93,-666.84 1035.93,-666.84 1029.93,-660.84 1029.93,-654.84 1029.93,-654.84 1029.93,-641.7 1029.93,-641.7 1029.93,-635.7 1035.93,-629.7 1041.93,-629.7 1041.93,-629.7 1093.2,-629.7 1093.2,-629.7 1099.2,-629.7 1105.2,-635.7 1105.2,-641.7 1105.2,-641.7 1105.2,-654.84 1105.2,-654.84 1105.2,-660.84 1099.2,-666.84 1093.2,-666.84"/>
<text text-anchor="middle" x="1067.56" y="-653.02" font-family="sans-serif" font-size="10.00" fill="white">plot_crop_use</text>
<text text-anchor="middle" x="1067.56" y="-638.77" font-family="sans-serif" font-size="10.00" fill="white">breakdown</text>
</g>
<!-- 1&#45;&gt;37 -->
<g id="edge77" class="edge">
<title>1&#45;&gt;37</title>
<path fill="none" stroke="#999999" stroke-width="1.5" d="M987.59,-645.46C998,-645.83 1009.67,-646.24 1020.78,-646.64"/>
<polygon fill="#999999" stroke="#999999" stroke-width="1.5" points="1020.59,-649.08 1027.67,-646.88 1020.76,-644.19 1020.59,-649.08"/>
</g>
<!-- 38 -->
<g id="node39" class="node">
<title>38</title>
<path fill="#3b745f" stroke="#56c9d8" stroke-width="0" d="M1100.7,-277.84C1100.7,-277.84 1034.43,-277.84 1034.43,-277.84 1028.43,-277.84 1022.43,-271.84 1022.43,-265.84 1022.43,-265.84 1022.43,-252.7 1022.43,-252.7 1022.43,-246.7 1028.43,-240.7 1034.43,-240.7 1034.43,-240.7 1100.7,-240.7 1100.7,-240.7 1106.7,-240.7 1112.7,-246.7 1112.7,-252.7 1112.7,-252.7 1112.7,-265.84 1112.7,-265.84 1112.7,-271.84 1106.7,-277.84 1100.7,-277.84"/>
<text text-anchor="middle" x="1067.56" y="-264.02" font-family="sans-serif" font-size="10.00" fill="white">plot_water_value</text>
<text text-anchor="middle" x="1067.56" y="-249.77" font-family="sans-serif" font-size="10.00" fill="white">map</text>
</g>
<!-- 1&#45;&gt;38 -->
<g id="edge78" class="edge">
<title>1&#45;&gt;38</title>
<path fill="none" stroke="#999999" stroke-width="1.5" d="M955.54,-626.36C960.71,-562.2 980.83,-344.66 1019.43,-288.27 1020.45,-286.78 1021.57,-285.36 1022.77,-283.99"/>
<polygon fill="#999999" stroke="#999999" stroke-width="1.5" points="1024.38,-285.85 1027.75,-279.25 1020.99,-282.31 1024.38,-285.85"/>
</g>
<!-- 39 -->
<g id="node40" class="node">
<title>39</title>
<path fill="#3b745f" stroke="#56d8a2" stroke-width="0" d="M1091.32,-501.84C1091.32,-501.84 1043.8,-501.84 1043.8,-501.84 1037.8,-501.84 1031.8,-495.84 1031.8,-489.84 1031.8,-489.84 1031.8,-476.7 1031.8,-476.7 1031.8,-470.7 1037.8,-464.7 1043.8,-464.7 1043.8,-464.7 1091.32,-464.7 1091.32,-464.7 1097.32,-464.7 1103.32,-470.7 1103.32,-476.7 1103.32,-476.7 1103.32,-489.84 1103.32,-489.84 1103.32,-495.84 1097.32,-501.84 1091.32,-501.84"/>
<text text-anchor="middle" x="1067.56" y="-488.02" font-family="sans-serif" font-size="10.00" fill="white">plot_food</text>
<text text-anchor="middle" x="1067.56" y="-473.77" font-family="sans-serif" font-size="10.00" fill="white">consumption</text>
</g>
<!-- 1&#45;&gt;39 -->
<g id="edge80" class="edge">
<title>1&#45;&gt;39</title>
<path fill="none" stroke="#999999" stroke-width="1.5" d="M959.37,-626.62C968.11,-599.44 987.91,-546.84 1019.43,-512.27 1021.13,-510.4 1022.98,-508.62 1024.92,-506.91"/>
<polygon fill="#999999" stroke="#999999" stroke-width="1.5" points="1026.1,-509.11 1030.07,-502.84 1023.06,-505.26 1026.1,-509.11"/>
</g>
<!-- 40 -->
<g id="node41" class="node">
<title>40</title>
<path fill="#3b745f" stroke="#56d8b9" stroke-width="0" d="M1103.7,-395.84C1103.7,-395.84 1031.43,-395.84 1031.43,-395.84 1025.43,-395.84 1019.43,-389.84 1019.43,-383.84 1019.43,-383.84 1019.43,-370.7 1019.43,-370.7 1019.43,-364.7 1025.43,-358.7 1031.43,-358.7 1031.43,-358.7 1103.7,-358.7 1103.7,-358.7 1109.7,-358.7 1115.7,-364.7 1115.7,-370.7 1115.7,-370.7 1115.7,-383.84 1115.7,-383.84 1115.7,-389.84 1109.7,-395.84 1103.7,-395.84"/>
<text text-anchor="middle" x="1067.56" y="-382.02" font-family="sans-serif" font-size="10.00" fill="white">plot_food</text>
<text text-anchor="middle" x="1067.56" y="-367.77" font-family="sans-serif" font-size="10.00" fill="white">consumption_map</text>
</g>
<!-- 1&#45;&gt;40 -->
<g id="edge82" class="edge">
<title>1&#45;&gt;40</title>
<path fill="none" stroke="#999999" stroke-width="1.5" d="M958.82,-626.37C968.09,-591.91 990.49,-514.39 1019.43,-453.27 1027.67,-435.86 1038.99,-417.48 1048.47,-403.16"/>
<polygon fill="#999999" stroke="#999999" stroke-width="1.5" points="1050.38,-404.71 1052.25,-397.53 1046.31,-401.98 1050.38,-404.71"/>
</g>
<!-- 2 -->
<g id="node3" class="node">
<title>2</title>
<path fill="#3b745f" stroke="#d88556" stroke-width="0" d="M862.16,-742.27C862.16,-742.27 818.39,-742.27 818.39,-742.27 812.39,-742.27 806.39,-736.27 806.39,-730.27 806.39,-730.27 806.39,-718.27 806.39,-718.27 806.39,-712.27 812.39,-706.27 818.39,-706.27 818.39,-706.27 862.16,-706.27 862.16,-706.27 868.16,-706.27 874.16,-712.27 874.16,-718.27 874.16,-718.27 874.16,-730.27 874.16,-730.27 874.16,-736.27 868.16,-742.27 862.16,-742.27"/>
<text text-anchor="middle" x="840.27" y="-721.89" font-family="sans-serif" font-size="10.00" fill="white">build_model</text>
</g>
<!-- 2&#45;&gt;1 -->
<g id="edge16" class="edge">
<title>2&#45;&gt;1</title>
<path fill="none" stroke="#999999" stroke-width="1.5" d="M866.16,-706.31C882.14,-694.79 903.05,-679.7 920.25,-667.3"/>
<polygon fill="#999999" stroke="#999999" stroke-width="1.5" points="921.28,-669.57 925.52,-663.49 918.41,-665.6 921.28,-669.57"/>
</g>
<!-- 3 -->
<g id="node4" class="node">
<title>3</title>
<path fill="#3b745f" stroke="#d86e56" stroke-width="0" d="M623.24,-812.84C623.24,-812.84 588.47,-812.84 588.47,-812.84 582.47,-812.84 576.47,-806.84 576.47,-800.84 576.47,-800.84 576.47,-787.7 576.47,-787.7 576.47,-781.7 582.47,-775.7 588.47,-775.7 588.47,-775.7 623.24,-775.7 623.24,-775.7 629.24,-775.7 635.24,-781.7 635.24,-787.7 635.24,-787.7 635.24,-800.84 635.24,-800.84 635.24,-806.84 629.24,-812.84 623.24,-812.84"/>
<text text-anchor="middle" x="605.86" y="-799.02" font-family="sans-serif" font-size="10.00" fill="white">build_crop</text>
<text text-anchor="middle" x="605.86" y="-784.77" font-family="sans-serif" font-size="10.00" fill="white">yields</text>
</g>
<!-- 3&#45;&gt;2 -->
<g id="edge20" class="edge">
<title>3&#45;&gt;2</title>
<path fill="none" stroke="#999999" stroke-width="1.5" d="M635.23,-784.24C648.05,-779.81 663.42,-774.62 677.37,-770.27 718.04,-757.58 764.9,-744.42 797.7,-735.45"/>
<polygon fill="#999999" stroke="#999999" stroke-width="1.5" points="798.27,-737.83 804.38,-733.63 796.98,-733.11 798.27,-737.83"/>
</g>
<!-- 22 -->
<g id="node23" class="node">
<title>22</title>
<path fill="#3b745f" stroke="#d88d56" stroke-width="0" d="M743.26,-891.96C743.26,-891.96 698.74,-891.96 698.74,-891.96 692.74,-891.96 686.74,-885.96 686.74,-879.96 686.74,-879.96 686.74,-852.57 686.74,-852.57 686.74,-846.57 692.74,-840.57 698.74,-840.57 698.74,-840.57 743.26,-840.57 743.26,-840.57 749.26,-840.57 755.26,-846.57 755.26,-852.57 755.26,-852.57 755.26,-879.96 755.26,-879.96 755.26,-885.96 749.26,-891.96 743.26,-891.96"/>
<text text-anchor="middle" x="721" y="-878.14" font-family="sans-serif" font-size="10.00" fill="white">build_region</text>
<text text-anchor="middle" x="721" y="-863.89" font-family="sans-serif" font-size="10.00" fill="white">water</text>
<text text-anchor="middle" x="721" y="-849.64" font-family="sans-serif" font-size="10.00" fill="white">availability</text>
</g>
<!-- 3&#45;&gt;22 -->
<g id="edge49" class="edge">
<title>3&#45;&gt;22</title>
<path fill="none" stroke="#999999" stroke-width="1.5" d="M635.12,-812.25C648.5,-820.76 664.72,-831.09 679.39,-840.42"/>
<polygon fill="#999999" stroke="#999999" stroke-width="1.5" points="677.75,-842.28 684.97,-843.98 680.38,-838.15 677.75,-842.28"/>
</g>
<!-- 4 -->
<g id="node5" class="node">
<title>4</title>
<path fill="#3b745f" stroke="#61d856" stroke-width="0" d="M395.58,-1120.84C395.58,-1120.84 337.56,-1120.84 337.56,-1120.84 331.56,-1120.84 325.56,-1114.84 325.56,-1108.84 325.56,-1108.84 325.56,-1095.7 325.56,-1095.7 325.56,-1089.7 331.56,-1083.7 337.56,-1083.7 337.56,-1083.7 395.58,-1083.7 395.58,-1083.7 401.58,-1083.7 407.58,-1089.7 407.58,-1095.7 407.58,-1095.7 407.58,-1108.84 407.58,-1108.84 407.58,-1114.84 401.58,-1120.84 395.58,-1120.84"/>
<text text-anchor="middle" x="366.57" y="-1107.02" font-family="sans-serif" font-size="10.00" fill="white">download_gaez</text>
<text text-anchor="middle" x="366.57" y="-1092.77" font-family="sans-serif" font-size="10.00" fill="white">yield_data</text>
</g>
<!-- 4&#45;&gt;3 -->
<g id="edge26" class="edge">
<title>4&#45;&gt;3</title>
<path fill="none" stroke="#999999" stroke-width="1.5" d="M374.54,-1083.99C391.82,-1038.73 435.3,-924.98 436.58,-923.27 472.61,-875.11 531.19,-835.88 568.87,-813.8"/>
<polygon fill="#999999" stroke="#999999" stroke-width="1.5" points="569.77,-816.1 574.61,-810.48 567.32,-811.86 569.77,-816.1"/>
</g>
<!-- 8 -->
<g id="node9" class="node">
<title>8</title>
<path fill="#3b745f" stroke="#d8a456" stroke-width="0" d="M522.35,-1197.84C522.35,-1197.84 448.58,-1197.84 448.58,-1197.84 442.58,-1197.84 436.58,-1191.84 436.58,-1185.84 436.58,-1185.84 436.58,-1172.7 436.58,-1172.7 436.58,-1166.7 442.58,-1160.7 448.58,-1160.7 448.58,-1160.7 522.35,-1160.7 522.35,-1160.7 528.35,-1160.7 534.35,-1166.7 534.35,-1172.7 534.35,-1172.7 534.35,-1185.84 534.35,-1185.84 534.35,-1191.84 528.35,-1197.84 522.35,-1197.84"/>
<text text-anchor="middle" x="485.46" y="-1184.02" font-family="sans-serif" font-size="10.00" fill="white">compute_resource</text>
<text text-anchor="middle" x="485.46" y="-1169.77" font-family="sans-serif" font-size="10.00" fill="white">classes</text>
</g>
<!-- 4&#45;&gt;8 -->
<g id="edge33" class="edge">
<title>4&#45;&gt;8</title>
<path fill="none" stroke="#999999" stroke-width="1.5" d="M395.57,-1120.71C411.5,-1131.21 431.62,-1144.46 448.69,-1155.7"/>
<polygon fill="#999999" stroke="#999999" stroke-width="1.5" points="447.2,-1157.65 454.39,-1159.46 449.9,-1153.56 447.2,-1157.65"/>
</g>
<!-- 5 -->
<g id="node6" class="node">
<title>5</title>
<path fill="#3b745f" stroke="#70d856" stroke-width="0" d="M514.47,-1091.84C514.47,-1091.84 456.45,-1091.84 456.45,-1091.84 450.45,-1091.84 444.45,-1085.84 444.45,-1079.84 444.45,-1079.84 444.45,-1066.7 444.45,-1066.7 444.45,-1060.7 450.45,-1054.7 456.45,-1054.7 456.45,-1054.7 514.47,-1054.7 514.47,-1054.7 520.47,-1054.7 526.47,-1060.7 526.47,-1066.7 526.47,-1066.7 526.47,-1079.84 526.47,-1079.84 526.47,-1085.84 520.47,-1091.84 514.47,-1091.84"/>
<text text-anchor="middle" x="485.46" y="-1078.02" font-family="sans-serif" font-size="10.00" fill="white">download_gaez</text>
<text text-anchor="middle" x="485.46" y="-1063.77" font-family="sans-serif" font-size="10.00" fill="white">suitability_data</text>
</g>
<!-- 5&#45;&gt;3 -->
<g id="edge30" class="edge">
<title>5&#45;&gt;3</title>
<path fill="none" stroke="#999999" stroke-width="1.5" d="M499.71,-1054.9C510.1,-1039.92 524.41,-1017.93 534.35,-997.27 549.73,-965.29 581.19,-868.73 596.34,-821.24"/>
<polygon fill="#999999" stroke="#999999" stroke-width="1.5" points="598.58,-822.28 598.37,-814.86 593.91,-820.79 598.58,-822.28"/>
</g>
<!-- 14 -->
<g id="node15" class="node">
<title>14</title>
<path fill="#3b745f" stroke="#d85656" stroke-width="0" d="M636.37,-1174.84C636.37,-1174.84 575.35,-1174.84 575.35,-1174.84 569.35,-1174.84 563.35,-1168.84 563.35,-1162.84 563.35,-1162.84 563.35,-1149.7 563.35,-1149.7 563.35,-1143.7 569.35,-1137.7 575.35,-1137.7 575.35,-1137.7 636.37,-1137.7 636.37,-1137.7 642.37,-1137.7 648.37,-1143.7 648.37,-1149.7 648.37,-1149.7 648.37,-1162.84 648.37,-1162.84 648.37,-1168.84 642.37,-1174.84 636.37,-1174.84"/>
<text text-anchor="middle" x="605.86" y="-1161.02" font-family="sans-serif" font-size="10.00" fill="white">aggregate_class</text>
<text text-anchor="middle" x="605.86" y="-1146.77" font-family="sans-serif" font-size="10.00" fill="white">areas</text>
</g>
<!-- 5&#45;&gt;14 -->
<g id="edge40" class="edge">
<title>5&#45;&gt;14</title>
<path fill="none" stroke="#999999" stroke-width="1.5" d="M512.74,-1091.69C530.06,-1103.83 552.9,-1119.84 571.5,-1132.88"/>
<polygon fill="#999999" stroke="#999999" stroke-width="1.5" points="569.66,-1134.58 576.8,-1136.6 572.47,-1130.57 569.66,-1134.58"/>
</g>
<!-- 6 -->
<g id="node7" class="node">
<title>6</title>
<path fill="#3b745f" stroke="#80d856" stroke-width="0" d="M516.35,-819.96C516.35,-819.96 454.58,-819.96 454.58,-819.96 448.58,-819.96 442.58,-813.96 442.58,-807.96 442.58,-807.96 442.58,-780.57 442.58,-780.57 442.58,-774.57 448.58,-768.57 454.58,-768.57 454.58,-768.57 516.35,-768.57 516.35,-768.57 522.35,-768.57 528.35,-774.57 528.35,-780.57 528.35,-780.57 528.35,-807.96 528.35,-807.96 528.35,-813.96 522.35,-819.96 516.35,-819.96"/>
<text text-anchor="middle" x="485.46" y="-806.14" font-family="sans-serif" font-size="10.00" fill="white">download_gaez</text>
<text text-anchor="middle" x="485.46" y="-791.89" font-family="sans-serif" font-size="10.00" fill="white">growing_season</text>
<text text-anchor="middle" x="485.46" y="-777.64" font-family="sans-serif" font-size="10.00" fill="white">start</text>
</g>
<!-- 6&#45;&gt;3 -->
<g id="edge28" class="edge">
<title>6&#45;&gt;3</title>
<path fill="none" stroke="#999999" stroke-width="1.5" d="M528.21,-794.27C541.05,-794.27 555.09,-794.27 567.6,-794.27"/>
<polygon fill="#999999" stroke="#999999" stroke-width="1.5" points="567.56,-796.72 574.56,-794.27 567.56,-791.82 567.56,-796.72"/>
</g>
<!-- 7 -->
<g id="node8" class="node">
<title>7</title>
<path fill="#3b745f" stroke="#8fd856" stroke-width="0" d="M516.35,-746.96C516.35,-746.96 454.58,-746.96 454.58,-746.96 448.58,-746.96 442.58,-740.96 442.58,-734.96 442.58,-734.96 442.58,-707.57 442.58,-707.57 442.58,-701.57 448.58,-695.57 454.58,-695.57 454.58,-695.57 516.35,-695.57 516.35,-695.57 522.35,-695.57 528.35,-701.57 528.35,-707.57 528.35,-707.57 528.35,-734.96 528.35,-734.96 528.35,-740.96 522.35,-746.96 516.35,-746.96"/>
<text text-anchor="middle" x="485.46" y="-733.14" font-family="sans-serif" font-size="10.00" fill="white">download_gaez</text>
<text text-anchor="middle" x="485.46" y="-718.89" font-family="sans-serif" font-size="10.00" fill="white">growing_season</text>
<text text-anchor="middle" x="485.46" y="-704.64" font-family="sans-serif" font-size="10.00" fill="white">length</text>
</g>
<!-- 7&#45;&gt;3 -->
<g id="edge31" class="edge">
<title>7&#45;&gt;3</title>
<path fill="none" stroke="#999999" stroke-width="1.5" d="M527.87,-746.8C541.24,-755.04 555.93,-764.1 568.87,-772.08"/>
<polygon fill="#999999" stroke="#999999" stroke-width="1.5" points="567.5,-774.11 574.74,-775.7 570.07,-769.94 567.5,-774.11"/>
</g>
<!-- 8&#45;&gt;3 -->
<g id="edge32" class="edge">
<title>8&#45;&gt;3</title>
<path fill="none" stroke="#999999" stroke-width="1.5" d="M501.16,-1160.73C512.06,-1146 526.36,-1124.42 534.35,-1103.27 562.97,-1027.46 544.44,-1002.06 563.35,-923.27 571.94,-887.46 585.55,-847.2 594.82,-821.34"/>
<polygon fill="#999999" stroke="#999999" stroke-width="1.5" points="597.06,-822.37 597.14,-814.95 592.45,-820.7 597.06,-822.37"/>
</g>
<!-- 8&#45;&gt;14 -->
<g id="edge41" class="edge">
<title>8&#45;&gt;14</title>
<path fill="none" stroke="#999999" stroke-width="1.5" d="M534.28,-1169.98C540.99,-1168.68 547.9,-1167.33 554.64,-1166.02"/>
<polygon fill="#999999" stroke="#999999" stroke-width="1.5" points="555.08,-1168.43 561.49,-1164.69 554.15,-1163.62 555.08,-1168.43"/>
</g>
<!-- 20 -->
<g id="node21" class="node">
<title>20</title>
<path fill="#3b745f" stroke="#d87d56" stroke-width="0" d="M634.87,-594.84C634.87,-594.84 576.85,-594.84 576.85,-594.84 570.85,-594.84 564.85,-588.84 564.85,-582.84 564.85,-582.84 564.85,-569.7 564.85,-569.7 564.85,-563.7 570.85,-557.7 576.85,-557.7 576.85,-557.7 634.87,-557.7 634.87,-557.7 640.87,-557.7 646.87,-563.7 646.87,-569.7 646.87,-569.7 646.87,-582.84 646.87,-582.84 646.87,-588.84 640.87,-594.84 634.87,-594.84"/>
<text text-anchor="middle" x="605.86" y="-581.02" font-family="sans-serif" font-size="10.00" fill="white">build_grassland</text>
<text text-anchor="middle" x="605.86" y="-566.77" font-family="sans-serif" font-size="10.00" fill="white">yields</text>
</g>
<!-- 8&#45;&gt;20 -->
<g id="edge44" class="edge">
<title>8&#45;&gt;20</title>
<path fill="none" stroke="#999999" stroke-width="1.5" d="M501.61,-1160.89C512.75,-1146.24 527.16,-1124.71 534.35,-1103.27 582.46,-959.91 540.55,-913.76 563.35,-764.27 572.18,-706.39 588.36,-639.7 597.7,-603.36"/>
<polygon fill="#999999" stroke="#999999" stroke-width="1.5" points="599.96,-604.38 599.35,-596.99 595.22,-603.15 599.96,-604.38"/>
</g>
<!-- 33 -->
<g id="node34" class="node">
<title>33</title>
<path fill="#3b745f" stroke="#56d8d8" stroke-width="0" d="M631.12,-1044.84C631.12,-1044.84 580.6,-1044.84 580.6,-1044.84 574.6,-1044.84 568.6,-1038.84 568.6,-1032.84 568.6,-1032.84 568.6,-1019.7 568.6,-1019.7 568.6,-1013.7 574.6,-1007.7 580.6,-1007.7 580.6,-1007.7 631.12,-1007.7 631.12,-1007.7 637.12,-1007.7 643.12,-1013.7 643.12,-1019.7 643.12,-1019.7 643.12,-1032.84 643.12,-1032.84 643.12,-1038.84 637.12,-1044.84 631.12,-1044.84"/>
<text text-anchor="middle" x="605.86" y="-1031.02" font-family="sans-serif" font-size="10.00" fill="white">plot_resource</text>
<text text-anchor="middle" x="605.86" y="-1016.77" font-family="sans-serif" font-size="10.00" fill="white">classes_map</text>
</g>
<!-- 8&#45;&gt;33 -->
<g id="edge66" class="edge">
<title>8&#45;&gt;33</title>
<path fill="none" stroke="#999999" stroke-width="1.5" d="M500.75,-1160.81C521.81,-1133.59 561.29,-1082.57 585.12,-1051.78"/>
<polygon fill="#999999" stroke="#999999" stroke-width="1.5" points="586.79,-1053.62 589.14,-1046.58 582.92,-1050.62 586.79,-1053.62"/>
</g>
<!-- 8&#45;&gt;35 -->
<g id="edge71" class="edge">
<title>8&#45;&gt;35</title>
<path fill="none" stroke="#999999" stroke-width="1.5" d="M505.89,-1197.8C543.81,-1231.93 631.72,-1301.27 720,-1301.27 720,-1301.27 720,-1301.27 841.27,-1301.27 905.08,-1301.27 977.04,-1283.33 1022.1,-1269.86"/>
<polygon fill="#999999" stroke="#999999" stroke-width="1.5" points="1022.58,-1272.28 1028.57,-1267.89 1021.16,-1267.59 1022.58,-1272.28"/>
</g>
<!-- 8&#45;&gt;36 -->
<g id="edge75" class="edge">
<title>8&#45;&gt;36</title>
<path fill="none" stroke="#999999" stroke-width="1.5" d="M534.09,-1189.01C581.13,-1197.77 655.21,-1209.27 720,-1209.27 720,-1209.27 720,-1209.27 841.27,-1209.27 921.87,-1209.27 997.97,-1144.25 1037.77,-1103.47"/>
<polygon fill="#999999" stroke="#999999" stroke-width="1.5" points="1039.43,-1105.29 1042.5,-1098.54 1035.89,-1101.89 1039.43,-1105.29"/>
</g>
<!-- 9 -->
<g id="node10" class="node">
<title>9</title>
<path fill="#3b745f" stroke="#d89556" stroke-width="0" d="M391.08,-500.27C391.08,-500.27 342.06,-500.27 342.06,-500.27 336.06,-500.27 330.06,-494.27 330.06,-488.27 330.06,-488.27 330.06,-476.27 330.06,-476.27 330.06,-470.27 336.06,-464.27 342.06,-464.27 342.06,-464.27 391.08,-464.27 391.08,-464.27 397.08,-464.27 403.08,-470.27 403.08,-476.27 403.08,-476.27 403.08,-488.27 403.08,-488.27 403.08,-494.27 397.08,-500.27 391.08,-500.27"/>
<text text-anchor="middle" x="366.57" y="-479.89" font-family="sans-serif" font-size="10.00" fill="white">build_regions</text>
</g>
<!-- 9&#45;&gt;2 -->
<g id="edge18" class="edge">
<title>9&#45;&gt;2</title>
<path fill="none" stroke="#999999" stroke-width="1.5" d="M399.14,-500.16C410.77,-506.49 424.13,-513.47 436.58,-519.27 478.99,-539.02 498.67,-528.01 534.35,-558.27 553.36,-574.39 545.39,-588.99 563.35,-606.27 605.07,-646.41 624.41,-645.86 677.37,-669.27 717.38,-686.95 764.96,-702.49 798.15,-712.51"/>
<polygon fill="#999999" stroke="#999999" stroke-width="1.5" points="797.1,-714.75 804.51,-714.41 798.5,-710.06 797.1,-714.75"/>
</g>
<!-- 9&#45;&gt;3 -->
<g id="edge27" class="edge">
<title>9&#45;&gt;3</title>
<path fill="none" stroke="#999999" stroke-width="1.5" d="M380.59,-500.11C393.46,-516.87 414.39,-541.89 436.58,-559.27 475.33,-589.62 502.3,-573.91 534.35,-611.27 559.79,-640.93 549.41,-657.76 563.35,-694.27 572.93,-719.35 584.74,-747.58 593.32,-767.64"/>
<polygon fill="#999999" stroke="#999999" stroke-width="1.5" points="590.98,-768.41 596,-773.88 595.49,-766.48 590.98,-768.41"/>
</g>
<!-- 9&#45;&gt;8 -->
<g id="edge34" class="edge">
<title>9&#45;&gt;8</title>
<path fill="none" stroke="#999999" stroke-width="1.5" d="M369.24,-500.21C379,-604.51 428.39,-1128.8 436.58,-1143.27 438.89,-1147.35 441.87,-1151.11 445.22,-1154.54"/>
<polygon fill="#999999" stroke="#999999" stroke-width="1.5" points="443.51,-1156.29 450.34,-1159.18 446.8,-1152.66 443.51,-1156.29"/>
</g>
<!-- 9&#45;&gt;14 -->
<g id="edge38" class="edge">
<title>9&#45;&gt;14</title>
<path fill="none" stroke="#999999" stroke-width="1.5" d="M369.19,-500.16C379.27,-611.61 433.18,-1206.18 436.58,-1209.27 468.73,-1238.51 493.13,-1223.03 534.35,-1209.27 551.63,-1203.5 568.08,-1191.64 580.73,-1180.61"/>
<polygon fill="#999999" stroke="#999999" stroke-width="1.5" points="582.13,-1182.65 585.67,-1176.13 578.84,-1179.02 582.13,-1182.65"/>
</g>
<!-- 9&#45;&gt;20 -->
<g id="edge43" class="edge">
<title>9&#45;&gt;20</title>
<path fill="none" stroke="#999999" stroke-width="1.5" d="M395.81,-464.31C430.67,-444.65 490.68,-419.18 534.35,-445.27 571.89,-467.69 590.61,-517.75 598.99,-549.08"/>
<polygon fill="#999999" stroke="#999999" stroke-width="1.5" points="596.54,-549.38 600.62,-555.57 601.29,-548.18 596.54,-549.38"/>
</g>
<!-- 9&#45;&gt;22 -->
<g id="edge46" class="edge">
<title>9&#45;&gt;22</title>
<path fill="none" stroke="#999999" stroke-width="1.5" d="M368.42,-500.02C371.9,-564.58 387.29,-785.42 436.58,-831.27 502.19,-892.29 616.41,-884.6 677.92,-874.8"/>
<polygon fill="#999999" stroke="#999999" stroke-width="1.5" points="678.22,-877.23 684.72,-873.66 677.41,-872.4 678.22,-877.23"/>
</g>
<!-- 26 -->
<g id="node27" class="node">
<title>26</title>
<path fill="#3b745f" stroke="#56a2d8" stroke-width="0" d="M869.28,-521.84C869.28,-521.84 811.26,-521.84 811.26,-521.84 805.26,-521.84 799.26,-515.84 799.26,-509.84 799.26,-509.84 799.26,-496.7 799.26,-496.7 799.26,-490.7 805.26,-484.7 811.26,-484.7 811.26,-484.7 869.28,-484.7 869.28,-484.7 875.28,-484.7 881.28,-490.7 881.28,-496.7 881.28,-496.7 881.28,-509.84 881.28,-509.84 881.28,-515.84 875.28,-521.84 869.28,-521.84"/>
<text text-anchor="middle" x="840.27" y="-508.02" font-family="sans-serif" font-size="10.00" fill="white">prepare_health</text>
<text text-anchor="middle" x="840.27" y="-493.77" font-family="sans-serif" font-size="10.00" fill="white">costs</text>
</g>
<!-- 9&#45;&gt;26 -->
<g id="edge53" class="edge">
<title>9&#45;&gt;26</title>
<path fill="none" stroke="#999999" stroke-width="1.5" d="M371.53,-464.41C378.86,-436.2 397.49,-382.16 436.58,-359.27 474.08,-337.31 491.14,-354.72 534.35,-359.27 638.42,-370.22 681.42,-344.83 764.64,-408.27 786.93,-425.26 776.22,-442.31 793.64,-464.27 797.74,-469.43 802.6,-474.42 807.59,-479.02"/>
<polygon fill="#999999" stroke="#999999" stroke-width="1.5" points="805.84,-480.74 812.72,-483.51 809.07,-477.05 805.84,-480.74"/>
</g>
<!-- 9&#45;&gt;31 -->
<g id="edge62" class="edge">
<title>9&#45;&gt;31</title>
<path fill="none" stroke="#999999" stroke-width="1.5" d="M384.08,-464.47C396.99,-451.94 416.13,-436.22 436.58,-429.27 477.72,-415.29 494.31,-412.38 534.35,-429.27 601.25,-457.49 601.6,-490.73 648.37,-546.27 662.51,-563.06 657.81,-576.29 677.37,-586.27 711.92,-603.89 725.95,-589.07 764.64,-586.27 859.48,-579.39 969.77,-560.53 1027.21,-549.86"/>
<polygon fill="#999999" stroke="#999999" stroke-width="1.5" points="1027.64,-552.28 1034.07,-548.58 1026.73,-547.46 1027.64,-552.28"/>
</g>
<!-- 32 -->
<g id="node33" class="node">
<title>32</title>
<path fill="#3b745f" stroke="#56d8d0" stroke-width="0" d="M874.91,-48.27C874.91,-48.27 805.64,-48.27 805.64,-48.27 799.64,-48.27 793.64,-42.27 793.64,-36.27 793.64,-36.27 793.64,-24.27 793.64,-24.27 793.64,-18.27 799.64,-12.27 805.64,-12.27 805.64,-12.27 874.91,-12.27 874.91,-12.27 880.91,-12.27 886.91,-18.27 886.91,-24.27 886.91,-24.27 886.91,-36.27 886.91,-36.27 886.91,-42.27 880.91,-48.27 874.91,-48.27"/>
<text text-anchor="middle" x="840.27" y="-27.89" font-family="sans-serif" font-size="10.00" fill="white">plot_regions_map</text>
</g>
<!-- 9&#45;&gt;32 -->
<g id="edge64" class="edge">
<title>9&#45;&gt;32</title>
<path fill="none" stroke="#999999" stroke-width="1.5" d="M367.74,-464.6C368.84,-392.33 376.94,-120.47 436.58,-65.27 531.71,22.78 699.21,1.99 785.12,-16.42"/>
<polygon fill="#999999" stroke="#999999" stroke-width="1.5" points="784.34,-18.75 791.71,-17.87 785.4,-13.97 784.34,-18.75"/>
</g>
<!-- 9&#45;&gt;33 -->
<g id="edge65" class="edge">
<title>9&#45;&gt;33</title>
<path fill="none" stroke="#999999" stroke-width="1.5" d="M368.72,-500.03C374.45,-586.47 401.18,-960.52 436.58,-997.27 467.9,-1029.78 521.51,-1033.88 559.8,-1031.86"/>
<polygon fill="#999999" stroke="#999999" stroke-width="1.5" points="559.61,-1034.32 566.44,-1031.41 559.29,-1029.43 559.61,-1034.32"/>
</g>
<!-- 9&#45;&gt;34 -->
<g id="edge68" class="edge">
<title>9&#45;&gt;34</title>
<path fill="none" stroke="#999999" stroke-width="1.5" d="M369.31,-464.3C375.34,-405.72 397.13,-221.6 436.58,-179.27 489.86,-122.1 526.71,-128.27 604.86,-128.27 604.86,-128.27 604.86,-128.27 841.27,-128.27 910.78,-128.27 942.68,-124.76 990.43,-175.27 1026.35,-213.26 988.45,-247.15 1019.43,-289.27 1020.63,-290.9 1021.96,-292.47 1023.38,-293.96"/>
<polygon fill="#999999" stroke="#999999" stroke-width="1.5" points="1021.59,-295.65 1028.43,-298.52 1024.87,-292.01 1021.59,-295.65"/>
</g>
<!-- 9&#45;&gt;35 -->
<g id="edge70" class="edge">
<title>9&#45;&gt;35</title>
<path fill="none" stroke="#999999" stroke-width="1.5" d="M369.29,-499.9C375.08,-559.44 394.22,-758.52 407.58,-923.27 411.23,-968.35 405.65,-1296.27 436.58,-1329.27 488.21,-1384.34 529.37,-1352.27 604.86,-1352.27 604.86,-1352.27 604.86,-1352.27 841.27,-1352.27 915.24,-1352.27 992.54,-1307.62 1034.61,-1278.9"/>
<polygon fill="#999999" stroke="#999999" stroke-width="1.5" points="1035.83,-1281.04 1040.18,-1275.04 1033.03,-1277.02 1035.83,-1281.04"/>
</g>
<!-- 9&#45;&gt;36 -->
<g id="edge74" class="edge">
<title>9&#45;&gt;36</title>
<path fill="none" stroke="#999999" stroke-width="1.5" d="M369.23,-500.19C378.62,-600.96 424.97,-1092.88 436.58,-1103.27 458.34,-1122.74 881.26,-1087.54 1021.68,-1075.26"/>
<polygon fill="#999999" stroke="#999999" stroke-width="1.5" points="1021.49,-1077.74 1028.25,-1074.69 1021.06,-1072.86 1021.49,-1077.74"/>
</g>
<!-- 9&#45;&gt;38 -->
<g id="edge79" class="edge">
<title>9&#45;&gt;38</title>
<path fill="none" stroke="#999999" stroke-width="1.5" d="M368.52,-464.7C372.37,-399.78 389.02,-174.47 436.58,-124.27 489.59,-68.3 527.77,-82.27 604.86,-82.27 604.86,-82.27 604.86,-82.27 841.27,-82.27 910.39,-82.27 936.21,-83.41 990.43,-126.27 992.81,-128.15 1030.5,-194.95 1051.94,-233.15"/>
<polygon fill="#999999" stroke="#999999" stroke-width="1.5" points="1049.57,-233.95 1055.13,-238.85 1053.85,-231.55 1049.57,-233.95"/>
</g>
<!-- 9&#45;&gt;40 -->
<g id="edge84" class="edge">
<title>9&#45;&gt;40</title>
<path fill="none" stroke="#999999" stroke-width="1.5" d="M368.75,-464.3C372.27,-424.05 385.85,-325.34 436.58,-264.27 490.77,-199.02 520.04,-174.27 604.86,-174.27 604.86,-174.27 604.86,-174.27 841.27,-174.27 912.08,-174.27 943.4,-177.33 990.43,-230.27 1026.3,-270.64 987.61,-304.63 1019.43,-348.27 1020.63,-349.91 1021.95,-351.47 1023.36,-352.97"/>
<polygon fill="#999999" stroke="#999999" stroke-width="1.5" points="1021.57,-354.65 1028.4,-357.54 1024.86,-351.02 1021.57,-354.65"/>
</g>
<!-- 41 -->
<g id="node42" class="node">
<title>41</title>
<path fill="#3b745f" stroke="#56d8a9" stroke-width="0" d="M978.43,-323.96C978.43,-323.96 927.91,-323.96 927.91,-323.96 921.91,-323.96 915.91,-317.96 915.91,-311.96 915.91,-311.96 915.91,-284.57 915.91,-284.57 915.91,-278.57 921.91,-272.57 927.91,-272.57 927.91,-272.57 978.43,-272.57 978.43,-272.57 984.43,-272.57 990.43,-278.57 990.43,-284.57 990.43,-284.57 990.43,-311.96 990.43,-311.96 990.43,-317.96 984.43,-323.96 978.43,-323.96"/>
<text text-anchor="middle" x="953.17" y="-310.14" font-family="sans-serif" font-size="10.00" fill="white">plot_food</text>
<text text-anchor="middle" x="953.17" y="-295.89" font-family="sans-serif" font-size="10.00" fill="white">consumption</text>
<text text-anchor="middle" x="953.17" y="-281.64" font-family="sans-serif" font-size="10.00" fill="white">baseline_map</text>
</g>
<!-- 9&#45;&gt;41 -->
<g id="edge89" class="edge">
<title>9&#45;&gt;41</title>
<path fill="none" stroke="#999999" stroke-width="1.5" d="M373.11,-464.31C382.53,-436.03 403.87,-380.52 436.58,-343.27 481.33,-292.29 499.88,-282.21 563.35,-258.27 647.29,-226.6 675.84,-230.51 764.64,-243.27 814.7,-250.46 870.04,-267.92 907.54,-281.26"/>
<polygon fill="#999999" stroke="#999999" stroke-width="1.5" points="906.65,-283.54 914.06,-283.61 908.31,-278.93 906.65,-283.54"/>
</g>
<!-- 10 -->
<g id="node11" class="node">
<title>10</title>
<path fill="#3b745f" stroke="#5673d8" stroke-width="0" d="M284.56,-500.27C284.56,-500.27 231.04,-500.27 231.04,-500.27 225.04,-500.27 219.04,-494.27 219.04,-488.27 219.04,-488.27 219.04,-476.27 219.04,-476.27 219.04,-470.27 225.04,-464.27 231.04,-464.27 231.04,-464.27 284.56,-464.27 284.56,-464.27 290.56,-464.27 296.56,-470.27 296.56,-476.27 296.56,-476.27 296.56,-488.27 296.56,-488.27 296.56,-494.27 290.56,-500.27 284.56,-500.27"/>
<text text-anchor="middle" x="257.8" y="-479.89" font-family="sans-serif" font-size="10.00" fill="white">simplify_gadm</text>
</g>
<!-- 10&#45;&gt;9 -->
<g id="edge35" class="edge">
<title>10&#45;&gt;9</title>
<path fill="none" stroke="#999999" stroke-width="1.5" d="M296.44,-482.27C304.47,-482.27 313.02,-482.27 321.27,-482.27"/>
<polygon fill="#999999" stroke="#999999" stroke-width="1.5" points="321.14,-484.72 328.14,-482.27 321.14,-479.82 321.14,-484.72"/>
</g>
<!-- 11 -->
<g id="node12" class="node">
<title>11</title>
<path fill="#3b745f" stroke="#56d86b" stroke-width="0" d="M178.04,-500.27C178.04,-500.27 128.27,-500.27 128.27,-500.27 122.27,-500.27 116.27,-494.27 116.27,-488.27 116.27,-488.27 116.27,-476.27 116.27,-476.27 116.27,-470.27 122.27,-464.27 128.27,-464.27 128.27,-464.27 178.04,-464.27 178.04,-464.27 184.04,-464.27 190.04,-470.27 190.04,-476.27 190.04,-476.27 190.04,-488.27 190.04,-488.27 190.04,-494.27 184.04,-500.27 178.04,-500.27"/>
<text text-anchor="middle" x="153.15" y="-479.89" font-family="sans-serif" font-size="10.00" fill="white">extract_adm1</text>
</g>
<!-- 11&#45;&gt;10 -->
<g id="edge36" class="edge">
<title>11&#45;&gt;10</title>
<path fill="none" stroke="#999999" stroke-width="1.5" d="M189.77,-482.27C196.3,-482.27 203.2,-482.27 210,-482.27"/>
<polygon fill="#999999" stroke="#999999" stroke-width="1.5" points="209.88,-484.72 216.88,-482.27 209.88,-479.82 209.88,-484.72"/>
</g>
<!-- 12 -->
<g id="node13" class="node">
<title>12</title>
<path fill="#3b745f" stroke="#9fd856" stroke-width="0" d="M75.27,-500.84C75.27,-500.84 12,-500.84 12,-500.84 6,-500.84 0,-494.84 0,-488.84 0,-488.84 0,-475.7 0,-475.7 0,-469.7 6,-463.7 12,-463.7 12,-463.7 75.27,-463.7 75.27,-463.7 81.27,-463.7 87.27,-469.7 87.27,-475.7 87.27,-475.7 87.27,-488.84 87.27,-488.84 87.27,-494.84 81.27,-500.84 75.27,-500.84"/>
<text text-anchor="middle" x="43.63" y="-487.02" font-family="sans-serif" font-size="10.00" fill="white">download_gadm</text>
<text text-anchor="middle" x="43.63" y="-472.77" font-family="sans-serif" font-size="10.00" fill="white">zip</text>
</g>
<!-- 12&#45;&gt;11 -->
<g id="edge37" class="edge">
<title>12&#45;&gt;11</title>
<path fill="none" stroke="#999999" stroke-width="1.5" d="M87.13,-482.27C93.83,-482.27 100.77,-482.27 107.52,-482.27"/>
<polygon fill="#999999" stroke="#999999" stroke-width="1.5" points="107.28,-484.72 114.28,-482.27 107.28,-479.82 107.28,-484.72"/>
</g>
<!-- 13 -->
<g id="node14" class="node">
<title>13</title>
<path fill="#3b745f" stroke="#68d856" stroke-width="0" d="M520.85,-673.96C520.85,-673.96 450.08,-673.96 450.08,-673.96 444.08,-673.96 438.08,-667.96 438.08,-661.96 438.08,-661.96 438.08,-634.57 438.08,-634.57 438.08,-628.57 444.08,-622.57 450.08,-622.57 450.08,-622.57 520.85,-622.57 520.85,-622.57 526.85,-622.57 532.85,-628.57 532.85,-634.57 532.85,-634.57 532.85,-661.96 532.85,-661.96 532.85,-667.96 526.85,-673.96 520.85,-673.96"/>
<text text-anchor="middle" x="485.46" y="-660.14" font-family="sans-serif" font-size="10.00" fill="white">download_gaez</text>
<text text-anchor="middle" x="485.46" y="-645.89" font-family="sans-serif" font-size="10.00" fill="white">water</text>
<text text-anchor="middle" x="485.46" y="-631.64" font-family="sans-serif" font-size="10.00" fill="white">requirement_data</text>
</g>
<!-- 13&#45;&gt;3 -->
<g id="edge29" class="edge">
<title>13&#45;&gt;3</title>
<path fill="none" stroke="#999999" stroke-width="1.5" d="M523.21,-673.7C527.15,-677.06 530.95,-680.61 534.35,-684.27 557.99,-709.74 578.58,-744.11 591.31,-767.62"/>
<polygon fill="#999999" stroke="#999999" stroke-width="1.5" points="589.12,-768.71 594.57,-773.74 593.45,-766.41 589.12,-768.71"/>
</g>
<!-- 14&#45;&gt;2 -->
<g id="edge23" class="edge">
<title>14&#45;&gt;2</title>
<path fill="none" stroke="#999999" stroke-width="1.5" d="M623.56,-1137.83C654.97,-1102.32 723.4,-1020.98 764.64,-942.27 798.73,-877.2 822.31,-793.33 832.92,-751.09"/>
<polygon fill="#999999" stroke="#999999" stroke-width="1.5" points="835.26,-751.84 834.56,-744.46 830.51,-750.67 835.26,-751.84"/>
</g>
<!-- 14&#45;&gt;35 -->
<g id="edge72" class="edge">
<title>14&#45;&gt;35</title>
<path fill="none" stroke="#999999" stroke-width="1.5" d="M648.26,-1166.1C707.46,-1180.05 819.8,-1206.14 915.91,-1226.27 951.47,-1233.72 991.9,-1241.46 1021.92,-1247.07"/>
<polygon fill="#999999" stroke="#999999" stroke-width="1.5" points="1021.32,-1249.45 1028.65,-1248.32 1022.22,-1244.63 1021.32,-1249.45"/>
</g>
<!-- 14&#45;&gt;36 -->
<g id="edge76" class="edge">
<title>14&#45;&gt;36</title>
<path fill="none" stroke="#999999" stroke-width="1.5" d="M648.13,-1149.57C718.52,-1138 866.26,-1113.13 990.43,-1088.27 1000.6,-1086.23 1011.5,-1083.89 1021.78,-1081.62"/>
<polygon fill="#999999" stroke="#999999" stroke-width="1.5" points="1022.1,-1084.05 1028.4,-1080.13 1021.03,-1079.27 1022.1,-1084.05"/>
</g>
<!-- 15 -->
<g id="node16" class="node">
<title>15</title>
<path fill="#3b745f" stroke="#78d856" stroke-width="0" d="M514.47,-1317.96C514.47,-1317.96 456.45,-1317.96 456.45,-1317.96 450.45,-1317.96 444.45,-1311.96 444.45,-1305.96 444.45,-1305.96 444.45,-1278.57 444.45,-1278.57 444.45,-1272.57 450.45,-1266.57 456.45,-1266.57 456.45,-1266.57 514.47,-1266.57 514.47,-1266.57 520.47,-1266.57 526.47,-1272.57 526.47,-1278.57 526.47,-1278.57 526.47,-1305.96 526.47,-1305.96 526.47,-1311.96 520.47,-1317.96 514.47,-1317.96"/>
<text text-anchor="middle" x="485.46" y="-1304.14" font-family="sans-serif" font-size="10.00" fill="white">download_gaez</text>
<text text-anchor="middle" x="485.46" y="-1289.89" font-family="sans-serif" font-size="10.00" fill="white">irrigated</text>
<text text-anchor="middle" x="485.46" y="-1275.64" font-family="sans-serif" font-size="10.00" fill="white">landshare_map</text>
</g>
<!-- 15&#45;&gt;14 -->
<g id="edge39" class="edge">
<title>15&#45;&gt;14</title>
<path fill="none" stroke="#999999" stroke-width="1.5" d="M516.67,-1266.73C522.73,-1261.18 528.9,-1255.19 534.35,-1249.27 554.01,-1227.91 573.74,-1201.33 587.32,-1182.06"/>
<polygon fill="#999999" stroke="#999999" stroke-width="1.5" points="589.26,-1183.55 591.26,-1176.41 585.25,-1180.75 589.26,-1183.55"/>
</g>
<!-- 16 -->
<g id="node17" class="node">
<title>16</title>
<path fill="#3b745f" stroke="#5692d8" stroke-width="0" d="M739.51,-291.84C739.51,-291.84 702.49,-291.84 702.49,-291.84 696.49,-291.84 690.49,-285.84 690.49,-279.84 690.49,-279.84 690.49,-266.7 690.49,-266.7 690.49,-260.7 696.49,-254.7 702.49,-254.7 702.49,-254.7 739.51,-254.7 739.51,-254.7 745.51,-254.7 751.51,-260.7 751.51,-266.7 751.51,-266.7 751.51,-279.84 751.51,-279.84 751.51,-285.84 745.51,-291.84 739.51,-291.84"/>
<text text-anchor="middle" x="721" y="-278.02" font-family="sans-serif" font-size="10.00" fill="white">prepare</text>
<text text-anchor="middle" x="721" y="-263.77" font-family="sans-serif" font-size="10.00" fill="white">population</text>
</g>
<!-- 16&#45;&gt;1 -->
<g id="edge15" class="edge">
<title>16&#45;&gt;1</title>
<path fill="none" stroke="#999999" stroke-width="1.5" d="M751.17,-288.79C756.26,-292.62 761.07,-297.12 764.64,-302.27 795.66,-347 760.67,-377.95 793.64,-421.27 822.39,-459.03 855.85,-437.38 886.91,-473.27 923.66,-515.73 940.77,-581.05 947.84,-617.44"/>
<polygon fill="#999999" stroke="#999999" stroke-width="1.5" points="945.42,-617.79 949.09,-624.23 950.23,-616.9 945.42,-617.79"/>
</g>
<!-- 16&#45;&gt;2 -->
<g id="edge17" class="edge">
<title>16&#45;&gt;2</title>
<path fill="none" stroke="#999999" stroke-width="1.5" d="M751.21,-288.16C756.43,-292.07 761.28,-296.77 764.64,-302.27 818.65,-390.52 775.14,-431.46 793.64,-533.27 804.43,-592.64 822.11,-661.22 832,-697.89"/>
<polygon fill="#999999" stroke="#999999" stroke-width="1.5" points="829.55,-698.2 833.74,-704.31 834.27,-696.91 829.55,-698.2"/>
</g>
<!-- 16&#45;&gt;26 -->
<g id="edge52" class="edge">
<title>16&#45;&gt;26</title>
<path fill="none" stroke="#999999" stroke-width="1.5" d="M751.43,-288.61C756.51,-292.45 761.24,-297.01 764.64,-302.27 805.05,-364.8 755.46,-403.35 793.64,-467.27 796.16,-471.49 799.38,-475.41 802.93,-478.99"/>
<polygon fill="#999999" stroke="#999999" stroke-width="1.5" points="801.11,-480.64 807.94,-483.53 804.4,-477.02 801.11,-480.64"/>
</g>
<!-- 16&#45;&gt;31 -->
<g id="edge61" class="edge">
<title>16&#45;&gt;31</title>
<path fill="none" stroke="#999999" stroke-width="1.5" d="M751.15,-290.15C756.01,-293.76 760.74,-297.83 764.64,-302.27 783.43,-323.6 774.66,-338.11 793.64,-359.27 826.71,-396.14 845.91,-392.48 886.91,-420.27 946.48,-460.63 959.31,-473.73 1019.43,-513.27 1022.24,-515.12 1025.17,-517.01 1028.13,-518.89"/>
<polygon fill="#999999" stroke="#999999" stroke-width="1.5" points="1026.82,-520.96 1034.05,-522.61 1029.42,-516.81 1026.82,-520.96"/>
</g>
<!-- 16&#45;&gt;39 -->
<g id="edge81" class="edge">
<title>16&#45;&gt;39</title>
<path fill="none" stroke="#999999" stroke-width="1.5" d="M751.25,-290.14C800.85,-318.88 904.44,-379.44 990.43,-433.27 1004.1,-441.83 1018.96,-451.5 1031.9,-460.04"/>
<polygon fill="#999999" stroke="#999999" stroke-width="1.5" points="1030.18,-461.85 1037.37,-463.67 1032.89,-457.76 1030.18,-461.85"/>
</g>
<!-- 16&#45;&gt;40 -->
<g id="edge83" class="edge">
<title>16&#45;&gt;40</title>
<path fill="none" stroke="#999999" stroke-width="1.5" d="M751.15,-261.26C804.3,-241.49 918.15,-209.17 990.43,-261.27 1023.49,-285.1 994.1,-316.33 1019.43,-348.27 1020.69,-349.86 1022.07,-351.38 1023.52,-352.84"/>
<polygon fill="#999999" stroke="#999999" stroke-width="1.5" points="1021.79,-354.58 1028.68,-357.34 1025.01,-350.89 1021.79,-354.58"/>
</g>
<!-- 16&#45;&gt;41 -->
<g id="edge88" class="edge">
<title>16&#45;&gt;41</title>
<path fill="none" stroke="#999999" stroke-width="1.5" d="M751.24,-277.65C764.21,-279.51 779.67,-281.63 793.64,-283.27 831.75,-287.73 875.14,-291.76 906.88,-294.52"/>
<polygon fill="#999999" stroke="#999999" stroke-width="1.5" points="906.47,-296.94 913.66,-295.1 906.89,-292.06 906.47,-296.94"/>
</g>
<!-- 17 -->
<g id="node18" class="node">
<title>17</title>
<path fill="#3b745f" stroke="#56d863" stroke-width="0" d="M634.12,-306.84C634.12,-306.84 577.6,-306.84 577.6,-306.84 571.6,-306.84 565.6,-300.84 565.6,-294.84 565.6,-294.84 565.6,-281.7 565.6,-281.7 565.6,-275.7 571.6,-269.7 577.6,-269.7 577.6,-269.7 634.12,-269.7 634.12,-269.7 640.12,-269.7 646.12,-275.7 646.12,-281.7 646.12,-281.7 646.12,-294.84 646.12,-294.84 646.12,-300.84 640.12,-306.84 634.12,-306.84"/>
<text text-anchor="middle" x="605.86" y="-293.02" font-family="sans-serif" font-size="10.00" fill="white">download_wpp</text>
<text text-anchor="middle" x="605.86" y="-278.77" font-family="sans-serif" font-size="10.00" fill="white">population</text>
</g>
<!-- 17&#45;&gt;16 -->
<g id="edge42" class="edge">
<title>17&#45;&gt;16</title>
<path fill="none" stroke="#999999" stroke-width="1.5" d="M646.12,-283.06C657.7,-281.53 670.35,-279.85 681.87,-278.32"/>
<polygon fill="#999999" stroke="#999999" stroke-width="1.5" points="681.94,-280.79 688.56,-277.44 681.3,-275.93 681.94,-280.79"/>
</g>
<!-- 29 -->
<g id="node30" class="node">
<title>29</title>
<path fill="#3b745f" stroke="#569ad8" stroke-width="0" d="M742.51,-350.84C742.51,-350.84 699.49,-350.84 699.49,-350.84 693.49,-350.84 687.49,-344.84 687.49,-338.84 687.49,-338.84 687.49,-325.7 687.49,-325.7 687.49,-319.7 693.49,-313.7 699.49,-313.7 699.49,-313.7 742.51,-313.7 742.51,-313.7 748.51,-313.7 754.51,-319.7 754.51,-325.7 754.51,-325.7 754.51,-338.84 754.51,-338.84 754.51,-344.84 748.51,-350.84 742.51,-350.84"/>
<text text-anchor="middle" x="721" y="-337.02" font-family="sans-serif" font-size="10.00" fill="white">prepare_life</text>
<text text-anchor="middle" x="721" y="-322.77" font-family="sans-serif" font-size="10.00" fill="white">table</text>
</g>
<!-- 17&#45;&gt;29 -->
<g id="edge58" class="edge">
<title>17&#45;&gt;29</title>
<path fill="none" stroke="#999999" stroke-width="1.5" d="M646.12,-303.53C656.79,-307.69 668.38,-312.19 679.14,-316.38"/>
<polygon fill="#999999" stroke="#999999" stroke-width="1.5" points="678.04,-318.58 685.45,-318.83 679.81,-314.01 678.04,-318.58"/>
</g>
<!-- 18 -->
<g id="node19" class="node">
<title>18</title>
<path fill="#3b745f" stroke="#56a9d8" stroke-width="0" d="M747.76,-574.84C747.76,-574.84 694.24,-574.84 694.24,-574.84 688.24,-574.84 682.24,-568.84 682.24,-562.84 682.24,-562.84 682.24,-549.7 682.24,-549.7 682.24,-543.7 688.24,-537.7 694.24,-537.7 694.24,-537.7 747.76,-537.7 747.76,-537.7 753.76,-537.7 759.76,-543.7 759.76,-549.7 759.76,-549.7 759.76,-562.84 759.76,-562.84 759.76,-568.84 753.76,-574.84 747.76,-574.84"/>
<text text-anchor="middle" x="721" y="-561.02" font-family="sans-serif" font-size="10.00" fill="white">prepare_gdd</text>
<text text-anchor="middle" x="721" y="-546.77" font-family="sans-serif" font-size="10.00" fill="white">dietary_intake</text>
</g>
<!-- 18&#45;&gt;2 -->
<g id="edge22" class="edge">
<title>18&#45;&gt;2</title>
<path fill="none" stroke="#999999" stroke-width="1.5" d="M734.78,-574.57C755.86,-604.77 797.97,-665.1 821.8,-699.23"/>
<polygon fill="#999999" stroke="#999999" stroke-width="1.5" points="819.56,-700.3 825.57,-704.64 823.57,-697.5 819.56,-700.3"/>
</g>
<!-- 18&#45;&gt;26 -->
<g id="edge57" class="edge">
<title>18&#45;&gt;26</title>
<path fill="none" stroke="#999999" stroke-width="1.5" d="M759.76,-539.21C769.79,-534.67 780.77,-529.71 791.28,-524.96"/>
<polygon fill="#999999" stroke="#999999" stroke-width="1.5" points="792.14,-527.26 797.51,-522.15 790.12,-522.8 792.14,-527.26"/>
</g>
<!-- 18&#45;&gt;41 -->
<g id="edge87" class="edge">
<title>18&#45;&gt;41</title>
<path fill="none" stroke="#999999" stroke-width="1.5" d="M759.5,-561.85C796.4,-565.11 852.12,-563.74 886.91,-533.27 917,-506.92 938.21,-391.51 947.27,-332.81"/>
<polygon fill="#999999" stroke="#999999" stroke-width="1.5" points="949.65,-333.44 948.28,-326.15 944.81,-332.7 949.65,-333.44"/>
</g>
<!-- 19 -->
<g id="node20" class="node">
<title>19</title>
<path fill="#3b745f" stroke="#567bd8" stroke-width="0" d="M751.51,-818.84C751.51,-818.84 690.49,-818.84 690.49,-818.84 684.49,-818.84 678.49,-812.84 678.49,-806.84 678.49,-806.84 678.49,-793.7 678.49,-793.7 678.49,-787.7 684.49,-781.7 690.49,-781.7 690.49,-781.7 751.51,-781.7 751.51,-781.7 757.51,-781.7 763.51,-787.7 763.51,-793.7 763.51,-793.7 763.51,-806.84 763.51,-806.84 763.51,-812.84 757.51,-818.84 751.51,-818.84"/>
<text text-anchor="middle" x="721" y="-805.02" font-family="sans-serif" font-size="10.00" fill="white">retrieve_faostat</text>
<text text-anchor="middle" x="721" y="-790.77" font-family="sans-serif" font-size="10.00" fill="white">prices</text>
</g>
<!-- 19&#45;&gt;2 -->
<g id="edge21" class="edge">
<title>19&#45;&gt;2</title>
<path fill="none" stroke="#999999" stroke-width="1.5" d="M750.39,-781.87C766.5,-771.43 786.8,-758.28 803.93,-747.17"/>
<polygon fill="#999999" stroke="#999999" stroke-width="1.5" points="805.11,-749.33 809.65,-743.47 802.44,-745.22 805.11,-749.33"/>
</g>
<!-- 20&#45;&gt;2 -->
<g id="edge24" class="edge">
<title>20&#45;&gt;2</title>
<path fill="none" stroke="#999999" stroke-width="1.5" d="M632.01,-594.77C645.33,-604.4 662.06,-616.23 677.37,-626.27 718.7,-653.38 767.37,-682.47 800.47,-701.85"/>
<polygon fill="#999999" stroke="#999999" stroke-width="1.5" points="798.88,-703.76 806.16,-705.17 801.36,-699.53 798.88,-703.76"/>
</g>
<!-- 21 -->
<g id="node22" class="node">
<title>21</title>
<path fill="#3b745f" stroke="#59d856" stroke-width="0" d="M514.1,-507.96C514.1,-507.96 456.83,-507.96 456.83,-507.96 450.83,-507.96 444.83,-501.96 444.83,-495.96 444.83,-495.96 444.83,-468.57 444.83,-468.57 444.83,-462.57 450.83,-456.57 456.83,-456.57 456.83,-456.57 514.1,-456.57 514.1,-456.57 520.1,-456.57 526.1,-462.57 526.1,-468.57 526.1,-468.57 526.1,-495.96 526.1,-495.96 526.1,-501.96 520.1,-507.96 514.1,-507.96"/>
<text text-anchor="middle" x="485.46" y="-494.14" font-family="sans-serif" font-size="10.00" fill="white">download</text>
<text text-anchor="middle" x="485.46" y="-479.89" font-family="sans-serif" font-size="10.00" fill="white">grassland_yield</text>
<text text-anchor="middle" x="485.46" y="-465.64" font-family="sans-serif" font-size="10.00" fill="white">data</text>
</g>
<!-- 21&#45;&gt;20 -->
<g id="edge45" class="edge">
<title>21&#45;&gt;20</title>
<path fill="none" stroke="#999999" stroke-width="1.5" d="M518.82,-507.95C536.19,-521.75 557.48,-538.65 574.53,-552.19"/>
<polygon fill="#999999" stroke="#999999" stroke-width="1.5" points="572.77,-553.92 579.78,-556.36 575.82,-550.08 572.77,-553.92"/>
</g>
<!-- 22&#45;&gt;2 -->
<g id="edge25" class="edge">
<title>22&#45;&gt;2</title>
<path fill="none" stroke="#999999" stroke-width="1.5" d="M754.04,-840.79C757.75,-837.39 761.37,-833.84 764.64,-830.27 787.79,-804.99 809.81,-772.27 823.85,-749.91"/>
<polygon fill="#999999" stroke="#999999" stroke-width="1.5" points="825.85,-751.35 827.45,-744.11 821.68,-748.76 825.85,-751.35"/>
</g>
<!-- 23 -->
<g id="node24" class="node">
<title>23</title>
<path fill="#3b745f" stroke="#56d873" stroke-width="0" d="M513.72,-985.96C513.72,-985.96 457.2,-985.96 457.2,-985.96 451.2,-985.96 445.2,-979.96 445.2,-973.96 445.2,-973.96 445.2,-946.57 445.2,-946.57 445.2,-940.57 451.2,-934.57 457.2,-934.57 457.2,-934.57 513.72,-934.57 513.72,-934.57 519.72,-934.57 525.72,-940.57 525.72,-946.57 525.72,-946.57 525.72,-973.96 525.72,-973.96 525.72,-979.96 519.72,-985.96 513.72,-985.96"/>
<text text-anchor="middle" x="485.46" y="-972.14" font-family="sans-serif" font-size="10.00" fill="white">extract</text>
<text text-anchor="middle" x="485.46" y="-957.89" font-family="sans-serif" font-size="10.00" fill="white">waterfootprint</text>
<text text-anchor="middle" x="485.46" y="-943.64" font-family="sans-serif" font-size="10.00" fill="white">appendix</text>
</g>
<!-- 23&#45;&gt;22 -->
<g id="edge48" class="edge">
<title>23&#45;&gt;22</title>
<path fill="none" stroke="#999999" stroke-width="1.5" d="M525.63,-940.49C537.62,-934.69 550.93,-928.5 563.35,-923.27 601.75,-907.09 646.5,-891.08 678.32,-880.17"/>
<polygon fill="#999999" stroke="#999999" stroke-width="1.5" points="678.95,-882.54 684.78,-877.96 677.37,-877.9 678.95,-882.54"/>
</g>
<!-- 25 -->
<g id="node26" class="node">
<title>25</title>
<path fill="#3b745f" stroke="#5682d8" stroke-width="0" d="M629.62,-985.96C629.62,-985.96 582.1,-985.96 582.1,-985.96 576.1,-985.96 570.1,-979.96 570.1,-973.96 570.1,-973.96 570.1,-946.57 570.1,-946.57 570.1,-940.57 576.1,-934.57 582.1,-934.57 582.1,-934.57 629.62,-934.57 629.62,-934.57 635.62,-934.57 641.62,-940.57 641.62,-946.57 641.62,-946.57 641.62,-973.96 641.62,-973.96 641.62,-979.96 635.62,-985.96 629.62,-985.96"/>
<text text-anchor="middle" x="605.86" y="-972.14" font-family="sans-serif" font-size="10.00" fill="white">process_blue</text>
<text text-anchor="middle" x="605.86" y="-957.89" font-family="sans-serif" font-size="10.00" fill="white">water</text>
<text text-anchor="middle" x="605.86" y="-943.64" font-family="sans-serif" font-size="10.00" fill="white">availability</text>
</g>
<!-- 23&#45;&gt;25 -->
<g id="edge51" class="edge">
<title>23&#45;&gt;25</title>
<path fill="none" stroke="#999999" stroke-width="1.5" d="M525.56,-960.27C536.93,-960.27 549.43,-960.27 561.07,-960.27"/>
<polygon fill="#999999" stroke="#999999" stroke-width="1.5" points="560.92,-962.72 567.92,-960.27 560.92,-957.82 560.92,-962.72"/>
</g>
<!-- 24 -->
<g id="node25" class="node">
<title>24</title>
<path fill="#3b745f" stroke="#56d85b" stroke-width="0" d="M394.83,-985.96C394.83,-985.96 338.31,-985.96 338.31,-985.96 332.31,-985.96 326.31,-979.96 326.31,-973.96 326.31,-973.96 326.31,-946.57 326.31,-946.57 326.31,-940.57 332.31,-934.57 338.31,-934.57 338.31,-934.57 394.83,-934.57 394.83,-934.57 400.83,-934.57 406.83,-940.57 406.83,-946.57 406.83,-946.57 406.83,-973.96 406.83,-973.96 406.83,-979.96 400.83,-985.96 394.83,-985.96"/>
<text text-anchor="middle" x="366.57" y="-972.14" font-family="sans-serif" font-size="10.00" fill="white">download</text>
<text text-anchor="middle" x="366.57" y="-957.89" font-family="sans-serif" font-size="10.00" fill="white">waterfootprint</text>
<text text-anchor="middle" x="366.57" y="-943.64" font-family="sans-serif" font-size="10.00" fill="white">appendix</text>
</g>
<!-- 24&#45;&gt;23 -->
<g id="edge50" class="edge">
<title>24&#45;&gt;23</title>
<path fill="none" stroke="#999999" stroke-width="1.5" d="M406.82,-960.27C416.27,-960.27 426.47,-960.27 436.28,-960.27"/>
<polygon fill="#999999" stroke="#999999" stroke-width="1.5" points="436.25,-962.72 443.25,-960.27 436.25,-957.82 436.25,-962.72"/>
</g>
<!-- 25&#45;&gt;2 -->
<g id="edge19" class="edge">
<title>25&#45;&gt;2</title>
<path fill="none" stroke="#999999" stroke-width="1.5" d="M641.57,-955.96C676.7,-949.91 730.59,-935.71 764.64,-903.27 808.65,-861.34 827.7,-789.53 835.11,-750.84"/>
<polygon fill="#999999" stroke="#999999" stroke-width="1.5" points="837.44,-751.76 836.27,-744.43 832.61,-750.89 837.44,-751.76"/>
</g>
<!-- 25&#45;&gt;22 -->
<g id="edge47" class="edge">
<title>25&#45;&gt;22</title>
<path fill="none" stroke="#999999" stroke-width="1.5" d="M637.78,-934.58C651.5,-923.18 667.77,-909.66 682.21,-897.67"/>
<polygon fill="#999999" stroke="#999999" stroke-width="1.5" points="683.56,-899.73 687.38,-893.37 680.43,-895.96 683.56,-899.73"/>
</g>
<!-- 26&#45;&gt;1 -->
<g id="edge14" class="edge">
<title>26&#45;&gt;1</title>
<path fill="none" stroke="#999999" stroke-width="1.5" d="M855.77,-521.7C875.39,-546.64 910.46,-591.23 932.46,-619.2"/>
<polygon fill="#999999" stroke="#999999" stroke-width="1.5" points="930.36,-620.5 936.62,-624.49 934.21,-617.47 930.36,-620.5"/>
</g>
<!-- 26&#45;&gt;31 -->
<g id="edge63" class="edge">
<title>26&#45;&gt;31</title>
<path fill="none" stroke="#999999" stroke-width="1.5" d="M881.03,-510.15C922.25,-517.29 986.3,-528.37 1027.32,-535.48"/>
<polygon fill="#999999" stroke="#999999" stroke-width="1.5" points="1026.67,-537.85 1033.98,-536.63 1027.5,-533.02 1026.67,-537.85"/>
</g>
<!-- 26&#45;&gt;40 -->
<g id="edge85" class="edge">
<title>26&#45;&gt;40</title>
<path fill="none" stroke="#999999" stroke-width="1.5" d="M874.03,-484.95C914.13,-462.52 982.05,-424.54 1025.57,-400.2"/>
<polygon fill="#999999" stroke="#999999" stroke-width="1.5" points="1026.5,-402.48 1031.42,-396.93 1024.11,-398.2 1026.5,-402.48"/>
</g>
<!-- 26&#45;&gt;41 -->
<g id="edge86" class="edge">
<title>26&#45;&gt;41</title>
<path fill="none" stroke="#999999" stroke-width="1.5" d="M851.31,-484.71C869.99,-450.18 910.35,-375.58 933.96,-331.94"/>
<polygon fill="#999999" stroke="#999999" stroke-width="1.5" points="936.05,-333.22 937.22,-325.9 931.74,-330.89 936.05,-333.22"/>
</g>
<!-- 27 -->
<g id="node28" class="node">
<title>27</title>
<path fill="#3b745f" stroke="#568ad8" stroke-width="0" d="M752.64,-515.84C752.64,-515.84 689.37,-515.84 689.37,-515.84 683.37,-515.84 677.37,-509.84 677.37,-503.84 677.37,-503.84 677.37,-490.7 677.37,-490.7 677.37,-484.7 683.37,-478.7 689.37,-478.7 689.37,-478.7 752.64,-478.7 752.64,-478.7 758.64,-478.7 764.64,-484.7 764.64,-490.7 764.64,-490.7 764.64,-503.84 764.64,-503.84 764.64,-509.84 758.64,-515.84 752.64,-515.84"/>
<text text-anchor="middle" x="721" y="-502.02" font-family="sans-serif" font-size="10.00" fill="white">prepare_relative</text>
<text text-anchor="middle" x="721" y="-487.77" font-family="sans-serif" font-size="10.00" fill="white">risks</text>
</g>
<!-- 27&#45;&gt;26 -->
<g id="edge54" class="edge">
<title>27&#45;&gt;26</title>
<path fill="none" stroke="#999999" stroke-width="1.5" d="M764.34,-499.43C772.73,-499.86 781.59,-500.32 790.18,-500.76"/>
<polygon fill="#999999" stroke="#999999" stroke-width="1.5" points="789.96,-503.2 797.08,-501.11 790.21,-498.3 789.96,-503.2"/>
</g>
<!-- 28 -->
<g id="node29" class="node">
<title>28</title>
<path fill="#3b745f" stroke="#56b1d8" stroke-width="0" d="M744.39,-456.84C744.39,-456.84 697.62,-456.84 697.62,-456.84 691.62,-456.84 685.62,-450.84 685.62,-444.84 685.62,-444.84 685.62,-431.7 685.62,-431.7 685.62,-425.7 691.62,-419.7 697.62,-419.7 697.62,-419.7 744.39,-419.7 744.39,-419.7 750.39,-419.7 756.39,-425.7 756.39,-431.7 756.39,-431.7 756.39,-444.84 756.39,-444.84 756.39,-450.84 750.39,-456.84 744.39,-456.84"/>
<text text-anchor="middle" x="721" y="-443.02" font-family="sans-serif" font-size="10.00" fill="white">prepare_gbd</text>
<text text-anchor="middle" x="721" y="-428.77" font-family="sans-serif" font-size="10.00" fill="white">mortality</text>
</g>
<!-- 28&#45;&gt;26 -->
<g id="edge55" class="edge">
<title>28&#45;&gt;26</title>
<path fill="none" stroke="#999999" stroke-width="1.5" d="M755.3,-456.72C768.54,-464.06 783.92,-472.59 797.88,-480.32"/>
<polygon fill="#999999" stroke="#999999" stroke-width="1.5" points="796.6,-482.42 803.91,-483.67 798.98,-478.13 796.6,-482.42"/>
</g>
<!-- 29&#45;&gt;26 -->
<g id="edge56" class="edge">
<title>29&#45;&gt;26</title>
<path fill="none" stroke="#999999" stroke-width="1.5" d="M748.75,-350.71C754.66,-355.82 760.41,-361.77 764.64,-368.27 789.66,-406.69 767.98,-429.27 793.64,-467.27 796.39,-471.35 799.75,-475.17 803.39,-478.7"/>
<polygon fill="#999999" stroke="#999999" stroke-width="1.5" points="801.6,-480.39 808.46,-483.21 804.85,-476.73 801.6,-480.39"/>
</g>
<!-- 30&#45;&gt;0 -->
<g id="edge4" class="edge">
<title>30&#45;&gt;0</title>
<path fill="none" stroke="#999999" stroke-width="1.5" d="M1099.69,-692.05C1105.55,-688.16 1111.23,-683.55 1115.7,-678.27 1143,-645.97 1158.02,-598.36 1165.21,-568.89"/>
<polygon fill="#999999" stroke="#999999" stroke-width="1.5" points="1167.56,-569.58 1166.76,-562.21 1162.79,-568.47 1167.56,-569.58"/>
</g>
<!-- 31&#45;&gt;0 -->
<g id="edge1" class="edge">
<title>31&#45;&gt;0</title>
<path fill="none" stroke="#999999" stroke-width="1.5" d="M1098.93,-542.27C1110.44,-542.27 1123.63,-542.27 1135.55,-542.27"/>
<polygon fill="#999999" stroke="#999999" stroke-width="1.5" points="1135.5,-544.72 1142.5,-542.27 1135.5,-539.82 1135.5,-544.72"/>
</g>
<!-- 32&#45;&gt;0 -->
<g id="edge10" class="edge">
<title>32&#45;&gt;0</title>
<path fill="none" stroke="#999999" stroke-width="1.5" d="M886.81,-32.93C918.09,-36.59 959.39,-45.18 990.43,-65.27 1067.43,-115.11 1078.88,-145.26 1115.7,-229.27 1159.16,-328.42 1168.31,-459.46 1170.21,-515.26"/>
<polygon fill="#999999" stroke="#999999" stroke-width="1.5" points="1167.76,-515.27 1170.42,-522.2 1172.66,-515.13 1167.76,-515.27"/>
</g>
<!-- 33&#45;&gt;0 -->
<g id="edge11" class="edge">
<title>33&#45;&gt;0</title>
<path fill="none" stroke="#999999" stroke-width="1.5" d="M643.03,-1021.98C688.69,-1016.94 769.69,-1009.27 839.27,-1009.27 839.27,-1009.27 839.27,-1009.27 954.17,-1009.27 1149.63,-1009.27 1169.16,-668.39 1170.7,-569.1"/>
<polygon fill="#999999" stroke="#999999" stroke-width="1.5" points="1173.14,-569.3 1170.77,-562.27 1168.25,-569.25 1173.14,-569.3"/>
</g>
<!-- 34&#45;&gt;0 -->
<g id="edge8" class="edge">
<title>34&#45;&gt;0</title>
<path fill="none" stroke="#999999" stroke-width="1.5" d="M1104.92,-336.57C1108.95,-339.72 1112.69,-343.28 1115.7,-347.27 1154.19,-398.21 1165.75,-474.96 1169.22,-515.3"/>
<polygon fill="#999999" stroke="#999999" stroke-width="1.5" points="1166.77,-515.44 1169.75,-522.24 1171.66,-515.07 1166.77,-515.44"/>
</g>
<!-- 35&#45;&gt;0 -->
<g id="edge2" class="edge">
<title>35&#45;&gt;0</title>
<path fill="none" stroke="#999999" stroke-width="1.5" d="M1075.81,-1237.04C1086.39,-1209.59 1105.89,-1155.78 1115.7,-1108.27 1157.9,-903.86 1167.91,-651.07 1170.12,-569.2"/>
<polygon fill="#999999" stroke="#999999" stroke-width="1.5" points="1172.56,-569.41 1170.29,-562.35 1167.66,-569.28 1172.56,-569.41"/>
</g>
<!-- 36&#45;&gt;0 -->
<g id="edge9" class="edge">
<title>36&#45;&gt;0</title>
<path fill="none" stroke="#999999" stroke-width="1.5" d="M1101.48,-1045.76C1107.06,-1039.94 1112.18,-1033.36 1115.7,-1026.27 1156.12,-944.86 1167.44,-658.96 1170.03,-569.34"/>
<polygon fill="#999999" stroke="#999999" stroke-width="1.5" points="1172.48,-569.45 1170.22,-562.38 1167.58,-569.31 1172.48,-569.45"/>
</g>
<!-- 37&#45;&gt;0 -->
<g id="edge7" class="edge">
<title>37&#45;&gt;0</title>
<path fill="none" stroke="#999999" stroke-width="1.5" d="M1094.98,-629.95C1102.01,-624.59 1109.4,-618.49 1115.7,-612.27 1129.53,-598.62 1143.04,-581.5 1153.21,-567.6"/>
<polygon fill="#999999" stroke="#999999" stroke-width="1.5" points="1155.07,-569.21 1157.17,-562.1 1151.1,-566.35 1155.07,-569.21"/>
</g>
<!-- 38&#45;&gt;0 -->
<g id="edge6" class="edge">
<title>38&#45;&gt;0</title>
<path fill="none" stroke="#999999" stroke-width="1.5" d="M1105.61,-277.77C1109.43,-280.85 1112.92,-284.35 1115.7,-288.27 1165.57,-358.69 1171.63,-465.65 1171.5,-515.25"/>
<polygon fill="#999999" stroke="#999999" stroke-width="1.5" points="1169.05,-515.09 1171.42,-522.11 1173.95,-515.14 1169.05,-515.09"/>
</g>
<!-- 39&#45;&gt;0 -->
<g id="edge13" class="edge">
<title>39&#45;&gt;0</title>
<path fill="none" stroke="#999999" stroke-width="1.5" d="M1100.6,-501.77C1112.2,-508.47 1125.33,-516.06 1137.06,-522.83"/>
<polygon fill="#999999" stroke="#999999" stroke-width="1.5" points="1135.67,-524.86 1142.95,-526.24 1138.12,-520.62 1135.67,-524.86"/>
</g>
<!-- 40&#45;&gt;0 -->
<g id="edge12" class="edge">
<title>40&#45;&gt;0</title>
<path fill="none" stroke="#999999" stroke-width="1.5" d="M1097.6,-395.7C1104.15,-400.81 1110.64,-406.76 1115.7,-413.27 1140,-444.53 1155.62,-488.13 1163.78,-515.77"/>
<polygon fill="#999999" stroke="#999999" stroke-width="1.5" points="1161.37,-516.25 1165.65,-522.31 1166.09,-514.91 1161.37,-516.25"/>
</g>
<!-- 41&#45;&gt;0 -->
<g id="edge3" class="edge">
<title>41&#45;&gt;0</title>
<path fill="none" stroke="#999999" stroke-width="1.5" d="M977.68,-323.73C982.22,-329.29 986.71,-335.3 990.43,-341.27 1007.38,-368.46 997.14,-384.26 1019.43,-407.27 1052.42,-441.33 1080.41,-421.59 1115.7,-453.27 1135.16,-470.73 1150.12,-496.7 1159.5,-516.08"/>
<polygon fill="#999999" stroke="#999999" stroke-width="1.5" points="1157.27,-517.1 1162.45,-522.41 1161.71,-515.03 1157.27,-517.1"/>
</g>
</g>
</svg>
