<?xml version="1.0" encoding="UTF-8" standalone="no"?>
<!DOCTYPE svg PUBLIC "-//W3C//DTD SVG 1.1//EN"
 "http://www.w3.org/Graphics/SVG/1.1/DTD/svg11.dtd">
<!-- Generated by graphviz version 12.2.1 (20241206.2353)
 -->
<!-- Title: snakemake_dag Pages: 1 -->
<svg width="1212pt" height="1500pt"
 viewBox="0.00 0.00 1211.95 1499.88" xmlns="http://www.w3.org/2000/svg" xmlns:xlink="http://www.w3.org/1999/xlink">
<g id="graph0" class="graph" transform="scale(1 1) rotate(0) translate(4 1495.88)">
<title>snakemake_dag</title>
<polygon fill="white" stroke="none" points="-4,4 -4,-1495.88 1207.95,-1495.88 1207.95,4 -4,4"/>
<!-- 0 -->
<g id="node1" class="node">
<title>0</title>
<path fill="#3b745f" stroke="#d85e56" stroke-width="0" d="M1191.95,-602.24C1191.95,-602.24 1161.95,-602.24 1161.95,-602.24 1155.95,-602.24 1149.95,-596.24 1149.95,-590.24 1149.95,-590.24 1149.95,-578.24 1149.95,-578.24 1149.95,-572.24 1155.95,-566.24 1161.95,-566.24 1161.95,-566.24 1191.95,-566.24 1191.95,-566.24 1197.95,-566.24 1203.95,-572.24 1203.95,-578.24 1203.95,-578.24 1203.95,-590.24 1203.95,-590.24 1203.95,-596.24 1197.95,-602.24 1191.95,-602.24"/>
<text text-anchor="middle" x="1176.95" y="-581.86" font-family="sans-serif" font-size="10.00" fill="white">all</text>
</g>
<!-- 1 -->
<g id="node2" class="node">
<title>1</title>
<path fill="#3b745f" stroke="#5663d8" stroke-width="0" d="M981.05,-667.24C981.05,-667.24 935.78,-667.24 935.78,-667.24 929.78,-667.24 923.78,-661.24 923.78,-655.24 923.78,-655.24 923.78,-643.24 923.78,-643.24 923.78,-637.24 929.78,-631.24 935.78,-631.24 935.78,-631.24 981.05,-631.24 981.05,-631.24 987.05,-631.24 993.05,-637.24 993.05,-643.24 993.05,-643.24 993.05,-655.24 993.05,-655.24 993.05,-661.24 987.05,-667.24 981.05,-667.24"/>
<text text-anchor="middle" x="958.42" y="-646.86" font-family="sans-serif" font-size="10.00" fill="white">solve_model</text>
</g>
<!-- 1&#45;&gt;0 -->
<g id="edge7" class="edge">
<title>1&#45;&gt;0</title>
<path fill="none" stroke="#999999" stroke-width="1.5" d="M992.85,-665.39C1027.12,-679.46 1080.94,-694.41 1120.95,-672.24 1144.53,-659.17 1159.33,-631.32 1167.57,-610.42"/>
<polygon fill="#999999" stroke="#999999" stroke-width="1.5" points="1169.78,-611.51 1169.91,-604.09 1165.18,-609.8 1169.78,-611.51"/>
</g>
<!-- 34 -->
<g id="node35" class="node">
<title>34</title>
<path fill="#3b745f" stroke="#56d8d0" stroke-width="0" d="M1093.2,-661.24C1093.2,-661.24 1052.43,-661.24 1052.43,-661.24 1046.43,-661.24 1040.43,-655.24 1040.43,-649.24 1040.43,-649.24 1040.43,-637.24 1040.43,-637.24 1040.43,-631.24 1046.43,-625.24 1052.43,-625.24 1052.43,-625.24 1093.2,-625.24 1093.2,-625.24 1099.2,-625.24 1105.2,-631.24 1105.2,-637.24 1105.2,-637.24 1105.2,-649.24 1105.2,-649.24 1105.2,-655.24 1099.2,-661.24 1093.2,-661.24"/>
<text text-anchor="middle" x="1072.81" y="-640.86" font-family="sans-serif" font-size="10.00" fill="white">plot_results</text>
</g>
<!-- 1&#45;&gt;34 -->
<g id="edge63" class="edge">
<title>1&#45;&gt;34</title>
<path fill="none" stroke="#999999" stroke-width="1.5" d="M992.84,-647.45C1005.02,-646.8 1018.93,-646.06 1031.64,-645.38"/>
<polygon fill="#999999" stroke="#999999" stroke-width="1.5" points="1031.51,-647.84 1038.37,-645.02 1031.25,-642.95 1031.51,-647.84"/>
</g>
<!-- 35 -->
<g id="node36" class="node">
<title>35</title>
<path fill="#3b745f" stroke="#56d8b1" stroke-width="0" d="M1092.45,-543.81C1092.45,-543.81 1053.18,-543.81 1053.18,-543.81 1047.18,-543.81 1041.18,-537.81 1041.18,-531.81 1041.18,-531.81 1041.18,-518.67 1041.18,-518.67 1041.18,-512.67 1047.18,-506.67 1053.18,-506.67 1053.18,-506.67 1092.45,-506.67 1092.45,-506.67 1098.45,-506.67 1104.45,-512.67 1104.45,-518.67 1104.45,-518.67 1104.45,-531.81 1104.45,-531.81 1104.45,-537.81 1098.45,-543.81 1092.45,-543.81"/>
<text text-anchor="middle" x="1072.81" y="-529.99" font-family="sans-serif" font-size="10.00" fill="white">plot_health</text>
<text text-anchor="middle" x="1072.81" y="-515.74" font-family="sans-serif" font-size="10.00" fill="white">impacts</text>
</g>
<!-- 1&#45;&gt;35 -->
<g id="edge64" class="edge">
<title>1&#45;&gt;35</title>
<path fill="none" stroke="#999999" stroke-width="1.5" d="M980.32,-631.5C985.73,-626.28 991.27,-620.33 995.68,-614.24 1013.05,-590.25 1004.82,-576.22 1024.68,-554.24 1027.44,-551.19 1030.59,-548.35 1033.92,-545.73"/>
<polygon fill="#999999" stroke="#999999" stroke-width="1.5" points="1035.32,-547.75 1039.6,-541.69 1032.47,-543.76 1035.32,-547.75"/>
</g>
<!-- 38 -->
<g id="node39" class="node">
<title>38</title>
<path fill="#3b745f" stroke="#56d882" stroke-width="0" d="M1104.07,-378.81C1104.07,-378.81 1041.55,-378.81 1041.55,-378.81 1035.55,-378.81 1029.55,-372.81 1029.55,-366.81 1029.55,-366.81 1029.55,-353.67 1029.55,-353.67 1029.55,-347.67 1035.55,-341.67 1041.55,-341.67 1041.55,-341.67 1104.07,-341.67 1104.07,-341.67 1110.07,-341.67 1116.07,-347.67 1116.07,-353.67 1116.07,-353.67 1116.07,-366.81 1116.07,-366.81 1116.07,-372.81 1110.07,-378.81 1104.07,-378.81"/>
<text text-anchor="middle" x="1072.81" y="-364.99" font-family="sans-serif" font-size="10.00" fill="white">plot_crop</text>
<text text-anchor="middle" x="1072.81" y="-350.74" font-family="sans-serif" font-size="10.00" fill="white">production_map</text>
</g>
<!-- 1&#45;&gt;38 -->
<g id="edge71" class="edge">
<title>1&#45;&gt;38</title>
<path fill="none" stroke="#999999" stroke-width="1.5" d="M963.27,-631.28C971.62,-593.9 993.26,-505.44 1024.68,-436.24 1032.64,-418.7 1043.95,-400.32 1053.5,-386.03"/>
<polygon fill="#999999" stroke="#999999" stroke-width="1.5" points="1055.4,-387.58 1057.31,-380.41 1051.35,-384.83 1055.4,-387.58"/>
</g>
<!-- 39 -->
<g id="node40" class="node">
<title>39</title>
<path fill="#3b745f" stroke="#56d892" stroke-width="0" d="M1097.7,-1309.81C1097.7,-1309.81 1047.93,-1309.81 1047.93,-1309.81 1041.93,-1309.81 1035.93,-1303.81 1035.93,-1297.81 1035.93,-1297.81 1035.93,-1284.67 1035.93,-1284.67 1035.93,-1278.67 1041.93,-1272.67 1047.93,-1272.67 1047.93,-1272.67 1097.7,-1272.67 1097.7,-1272.67 1103.7,-1272.67 1109.7,-1278.67 1109.7,-1284.67 1109.7,-1284.67 1109.7,-1297.81 1109.7,-1297.81 1109.7,-1303.81 1103.7,-1309.81 1097.7,-1309.81"/>
<text text-anchor="middle" x="1072.81" y="-1295.99" font-family="sans-serif" font-size="10.00" fill="white">plot_cropland</text>
<text text-anchor="middle" x="1072.81" y="-1281.74" font-family="sans-serif" font-size="10.00" fill="white">fraction_map</text>
</g>
<!-- 1&#45;&gt;39 -->
<g id="edge73" class="edge">
<title>1&#45;&gt;39</title>
<path fill="none" stroke="#999999" stroke-width="1.5" d="M960,-667.15C963,-753.85 978.53,-1129.96 1024.68,-1236.24 1029.42,-1247.16 1037.1,-1257.53 1044.9,-1266.26"/>
<polygon fill="#999999" stroke="#999999" stroke-width="1.5" points="1043,-1267.8 1049.58,-1271.23 1046.57,-1264.45 1043,-1267.8"/>
</g>
<!-- 40 -->
<g id="node41" class="node">
<title>40</title>
<path fill="#3b745f" stroke="#56d8b9" stroke-width="0" d="M1098.07,-1224.93C1098.07,-1224.93 1047.55,-1224.93 1047.55,-1224.93 1041.55,-1224.93 1035.55,-1218.93 1035.55,-1212.93 1035.55,-1212.93 1035.55,-1185.54 1035.55,-1185.54 1035.55,-1179.54 1041.55,-1173.54 1047.55,-1173.54 1047.55,-1173.54 1098.07,-1173.54 1098.07,-1173.54 1104.07,-1173.54 1110.07,-1179.54 1110.07,-1185.54 1110.07,-1185.54 1110.07,-1212.93 1110.07,-1212.93 1110.07,-1218.93 1104.07,-1224.93 1098.07,-1224.93"/>
<text text-anchor="middle" x="1072.81" y="-1211.11" font-family="sans-serif" font-size="10.00" fill="white">plot_irrigated</text>
<text text-anchor="middle" x="1072.81" y="-1196.86" font-family="sans-serif" font-size="10.00" fill="white">cropland</text>
<text text-anchor="middle" x="1072.81" y="-1182.61" font-family="sans-serif" font-size="10.00" fill="white">fraction_map</text>
</g>
<!-- 1&#45;&gt;40 -->
<g id="edge77" class="edge">
<title>1&#45;&gt;40</title>
<path fill="none" stroke="#999999" stroke-width="1.5" d="M963.1,-667.22C979.14,-745.76 1043.23,-1059.35 1064.74,-1164.6"/>
<polygon fill="#999999" stroke="#999999" stroke-width="1.5" points="1062.31,-1164.95 1066.11,-1171.32 1067.11,-1163.97 1062.31,-1164.95"/>
</g>
<!-- 41 -->
<g id="node42" class="node">
<title>41</title>
<path fill="#3b745f" stroke="#56d88a" stroke-width="0" d="M1098.45,-602.81C1098.45,-602.81 1047.18,-602.81 1047.18,-602.81 1041.18,-602.81 1035.18,-596.81 1035.18,-590.81 1035.18,-590.81 1035.18,-577.67 1035.18,-577.67 1035.18,-571.67 1041.18,-565.67 1047.18,-565.67 1047.18,-565.67 1098.45,-565.67 1098.45,-565.67 1104.45,-565.67 1110.45,-571.67 1110.45,-577.67 1110.45,-577.67 1110.45,-590.81 1110.45,-590.81 1110.45,-596.81 1104.45,-602.81 1098.45,-602.81"/>
<text text-anchor="middle" x="1072.81" y="-588.99" font-family="sans-serif" font-size="10.00" fill="white">plot_crop_use</text>
<text text-anchor="middle" x="1072.81" y="-574.74" font-family="sans-serif" font-size="10.00" fill="white">breakdown</text>
</g>
<!-- 1&#45;&gt;41 -->
<g id="edge81" class="edge">
<title>1&#45;&gt;41</title>
<path fill="none" stroke="#999999" stroke-width="1.5" d="M990.43,-631.3C1003.25,-623.89 1018.27,-615.2 1031.9,-607.32"/>
<polygon fill="#999999" stroke="#999999" stroke-width="1.5" points="1032.93,-609.55 1037.77,-603.93 1030.48,-605.31 1032.93,-609.55"/>
</g>
<!-- 42 -->
<g id="node43" class="node">
<title>42</title>
<path fill="#3b745f" stroke="#56d8d8" stroke-width="0" d="M1105.95,-319.81C1105.95,-319.81 1039.68,-319.81 1039.68,-319.81 1033.68,-319.81 1027.68,-313.81 1027.68,-307.81 1027.68,-307.81 1027.68,-294.67 1027.68,-294.67 1027.68,-288.67 1033.68,-282.67 1039.68,-282.67 1039.68,-282.67 1105.95,-282.67 1105.95,-282.67 1111.95,-282.67 1117.95,-288.67 1117.95,-294.67 1117.95,-294.67 1117.95,-307.81 1117.95,-307.81 1117.95,-313.81 1111.95,-319.81 1105.95,-319.81"/>
<text text-anchor="middle" x="1072.81" y="-305.99" font-family="sans-serif" font-size="10.00" fill="white">plot_water_value</text>
<text text-anchor="middle" x="1072.81" y="-291.74" font-family="sans-serif" font-size="10.00" fill="white">map</text>
</g>
<!-- 1&#45;&gt;42 -->
<g id="edge82" class="edge">
<title>1&#45;&gt;42</title>
<path fill="none" stroke="#999999" stroke-width="1.5" d="M961.18,-631.56C967.39,-572.08 989.76,-380.14 1024.68,-330.24 1025.71,-328.76 1026.85,-327.35 1028.06,-325.99"/>
<polygon fill="#999999" stroke="#999999" stroke-width="1.5" points="1029.66,-327.85 1033.07,-321.26 1026.3,-324.29 1029.66,-327.85"/>
</g>
<!-- 43 -->
<g id="node44" class="node">
<title>43</title>
<path fill="#3b745f" stroke="#56d89a" stroke-width="0" d="M1096.57,-766.81C1096.57,-766.81 1049.05,-766.81 1049.05,-766.81 1043.05,-766.81 1037.05,-760.81 1037.05,-754.81 1037.05,-754.81 1037.05,-741.67 1037.05,-741.67 1037.05,-735.67 1043.05,-729.67 1049.05,-729.67 1049.05,-729.67 1096.57,-729.67 1096.57,-729.67 1102.57,-729.67 1108.57,-735.67 1108.57,-741.67 1108.57,-741.67 1108.57,-754.81 1108.57,-754.81 1108.57,-760.81 1102.57,-766.81 1096.57,-766.81"/>
<text text-anchor="middle" x="1072.81" y="-752.99" font-family="sans-serif" font-size="10.00" fill="white">plot_food</text>
<text text-anchor="middle" x="1072.81" y="-738.74" font-family="sans-serif" font-size="10.00" fill="white">consumption</text>
</g>
<!-- 1&#45;&gt;43 -->
<g id="edge84" class="edge">
<title>1&#45;&gt;43</title>
<path fill="none" stroke="#999999" stroke-width="1.5" d="M976.9,-667.19C989.75,-680.12 1007.84,-697.76 1024.68,-712.24 1029.3,-716.21 1034.3,-720.26 1039.25,-724.15"/>
<polygon fill="#999999" stroke="#999999" stroke-width="1.5" points="1037.6,-725.98 1044.64,-728.32 1040.6,-722.1 1037.6,-725.98"/>
</g>
<!-- 44 -->
<g id="node45" class="node">
<title>44</title>
<path fill="#3b745f" stroke="#56d8a9" stroke-width="0" d="M1108.95,-484.81C1108.95,-484.81 1036.68,-484.81 1036.68,-484.81 1030.68,-484.81 1024.68,-478.81 1024.68,-472.81 1024.68,-472.81 1024.68,-459.67 1024.68,-459.67 1024.68,-453.67 1030.68,-447.67 1036.68,-447.67 1036.68,-447.67 1108.95,-447.67 1108.95,-447.67 1114.95,-447.67 1120.95,-453.67 1120.95,-459.67 1120.95,-459.67 1120.95,-472.81 1120.95,-472.81 1120.95,-478.81 1114.95,-484.81 1108.95,-484.81"/>
<text text-anchor="middle" x="1072.81" y="-470.99" font-family="sans-serif" font-size="10.00" fill="white">plot_food</text>
<text text-anchor="middle" x="1072.81" y="-456.74" font-family="sans-serif" font-size="10.00" fill="white">consumption_map</text>
</g>
<!-- 1&#45;&gt;44 -->
<g id="edge86" class="edge">
<title>1&#45;&gt;44</title>
<path fill="none" stroke="#999999" stroke-width="1.5" d="M963.14,-631.67C970.38,-600.96 988.91,-536.86 1024.68,-495.24 1026.16,-493.52 1027.77,-491.87 1029.47,-490.29"/>
<polygon fill="#999999" stroke="#999999" stroke-width="1.5" points="1030.81,-492.35 1034.65,-486.01 1027.7,-488.57 1030.81,-492.35"/>
</g>
<!-- 2 -->
<g id="node3" class="node">
<title>2</title>
<path fill="#3b745f" stroke="#d88556" stroke-width="0" d="M867.41,-834.24C867.41,-834.24 823.64,-834.24 823.64,-834.24 817.64,-834.24 811.64,-828.24 811.64,-822.24 811.64,-822.24 811.64,-810.24 811.64,-810.24 811.64,-804.24 817.64,-798.24 823.64,-798.24 823.64,-798.24 867.41,-798.24 867.41,-798.24 873.41,-798.24 879.41,-804.24 879.41,-810.24 879.41,-810.24 879.41,-822.24 879.41,-822.24 879.41,-828.24 873.41,-834.24 867.41,-834.24"/>
<text text-anchor="middle" x="845.52" y="-813.86" font-family="sans-serif" font-size="10.00" fill="white">build_model</text>
</g>
<!-- 2&#45;&gt;1 -->
<g id="edge14" class="edge">
<title>2&#45;&gt;1</title>
<path fill="none" stroke="#999999" stroke-width="1.5" d="M858.39,-798.37C878.1,-768.69 917.65,-709.12 940.35,-674.94"/>
<polygon fill="#999999" stroke="#999999" stroke-width="1.5" points="942.38,-676.31 944.21,-669.13 938.3,-673.6 942.38,-676.31"/>
</g>
<!-- 3 -->
<g id="node4" class="node">
<title>3</title>
<path fill="#3b745f" stroke="#d86e56" stroke-width="0" d="M625.87,-944.81C625.87,-944.81 591.1,-944.81 591.1,-944.81 585.1,-944.81 579.1,-938.81 579.1,-932.81 579.1,-932.81 579.1,-919.67 579.1,-919.67 579.1,-913.67 585.1,-907.67 591.1,-907.67 591.1,-907.67 625.87,-907.67 625.87,-907.67 631.87,-907.67 637.87,-913.67 637.87,-919.67 637.87,-919.67 637.87,-932.81 637.87,-932.81 637.87,-938.81 631.87,-944.81 625.87,-944.81"/>
<text text-anchor="middle" x="608.48" y="-930.99" font-family="sans-serif" font-size="10.00" fill="white">build_crop</text>
<text text-anchor="middle" x="608.48" y="-916.74" font-family="sans-serif" font-size="10.00" fill="white">yields</text>
</g>
<!-- 3&#45;&gt;2 -->
<g id="edge19" class="edge">
<title>3&#45;&gt;2</title>
<path fill="none" stroke="#999999" stroke-width="1.5" d="M637.84,-912.97C679.19,-893.62 756.27,-857.54 803.72,-835.34"/>
<polygon fill="#999999" stroke="#999999" stroke-width="1.5" points="804.57,-837.64 809.87,-832.46 802.49,-833.2 804.57,-837.64"/>
</g>
<!-- 26 -->
<g id="node27" class="node">
<title>26</title>
<path fill="#3b745f" stroke="#d88d56" stroke-width="0" d="M748.51,-1118.93C748.51,-1118.93 703.99,-1118.93 703.99,-1118.93 697.99,-1118.93 691.99,-1112.93 691.99,-1106.93 691.99,-1106.93 691.99,-1079.54 691.99,-1079.54 691.99,-1073.54 697.99,-1067.54 703.99,-1067.54 703.99,-1067.54 748.51,-1067.54 748.51,-1067.54 754.51,-1067.54 760.51,-1073.54 760.51,-1079.54 760.51,-1079.54 760.51,-1106.93 760.51,-1106.93 760.51,-1112.93 754.51,-1118.93 748.51,-1118.93"/>
<text text-anchor="middle" x="726.25" y="-1105.11" font-family="sans-serif" font-size="10.00" fill="white">build_region</text>
<text text-anchor="middle" x="726.25" y="-1090.86" font-family="sans-serif" font-size="10.00" fill="white">water</text>
<text text-anchor="middle" x="726.25" y="-1076.61" font-family="sans-serif" font-size="10.00" fill="white">availability</text>
</g>
<!-- 3&#45;&gt;26 -->
<g id="edge53" class="edge">
<title>3&#45;&gt;26</title>
<path fill="none" stroke="#999999" stroke-width="1.5" d="M632.36,-944.57C639.98,-951.62 647.95,-960.17 653.62,-969.24 675.44,-1004.16 659.57,-1023.11 682.62,-1057.24 683.72,-1058.87 684.92,-1060.47 686.18,-1062.03"/>
<polygon fill="#999999" stroke="#999999" stroke-width="1.5" points="684.1,-1063.38 690.61,-1066.93 687.74,-1060.1 684.1,-1063.38"/>
</g>
<!-- 4 -->
<g id="node5" class="node">
<title>4</title>
<path fill="#3b745f" stroke="#68d856" stroke-width="0" d="M395.58,-1077.81C395.58,-1077.81 337.56,-1077.81 337.56,-1077.81 331.56,-1077.81 325.56,-1071.81 325.56,-1065.81 325.56,-1065.81 325.56,-1052.67 325.56,-1052.67 325.56,-1046.67 331.56,-1040.67 337.56,-1040.67 337.56,-1040.67 395.58,-1040.67 395.58,-1040.67 401.58,-1040.67 407.58,-1046.67 407.58,-1052.67 407.58,-1052.67 407.58,-1065.81 407.58,-1065.81 407.58,-1071.81 401.58,-1077.81 395.58,-1077.81"/>
<text text-anchor="middle" x="366.57" y="-1063.99" font-family="sans-serif" font-size="10.00" fill="white">download_gaez</text>
<text text-anchor="middle" x="366.57" y="-1049.74" font-family="sans-serif" font-size="10.00" fill="white">yield_data</text>
</g>
<!-- 4&#45;&gt;3 -->
<g id="edge33" class="edge">
<title>4&#45;&gt;3</title>
<path fill="none" stroke="#999999" stroke-width="1.5" d="M400.93,-1040.75C445.75,-1015.9 525.1,-971.91 571.31,-946.29"/>
<polygon fill="#999999" stroke="#999999" stroke-width="1.5" points="572.35,-948.52 577.28,-942.98 569.97,-944.23 572.35,-948.52"/>
</g>
<!-- 8 -->
<g id="node9" class="node">
<title>8</title>
<path fill="#3b745f" stroke="#d89c56" stroke-width="0" d="M522.35,-1401.81C522.35,-1401.81 448.58,-1401.81 448.58,-1401.81 442.58,-1401.81 436.58,-1395.81 436.58,-1389.81 436.58,-1389.81 436.58,-1376.67 436.58,-1376.67 436.58,-1370.67 442.58,-1364.67 448.58,-1364.67 448.58,-1364.67 522.35,-1364.67 522.35,-1364.67 528.35,-1364.67 534.35,-1370.67 534.35,-1376.67 534.35,-1376.67 534.35,-1389.81 534.35,-1389.81 534.35,-1395.81 528.35,-1401.81 522.35,-1401.81"/>
<text text-anchor="middle" x="485.46" y="-1387.99" font-family="sans-serif" font-size="10.00" fill="white">compute_resource</text>
<text text-anchor="middle" x="485.46" y="-1373.74" font-family="sans-serif" font-size="10.00" fill="white">classes</text>
</g>
<!-- 4&#45;&gt;8 -->
<g id="edge36" class="edge">
<title>4&#45;&gt;8</title>
<path fill="none" stroke="#999999" stroke-width="1.5" d="M384.65,-1077.65C392.98,-1087.71 402.31,-1100.83 407.58,-1114.24 446.89,-1214.23 378.31,-1263.97 436.58,-1354.24 437.53,-1355.71 438.58,-1357.11 439.72,-1358.46"/>
<polygon fill="#999999" stroke="#999999" stroke-width="1.5" points="437.69,-1359.9 444.4,-1363.08 441.14,-1356.42 437.69,-1359.9"/>
</g>
<!-- 5 -->
<g id="node6" class="node">
<title>5</title>
<path fill="#3b745f" stroke="#78d856" stroke-width="0" d="M514.47,-1103.81C514.47,-1103.81 456.45,-1103.81 456.45,-1103.81 450.45,-1103.81 444.45,-1097.81 444.45,-1091.81 444.45,-1091.81 444.45,-1078.67 444.45,-1078.67 444.45,-1072.67 450.45,-1066.67 456.45,-1066.67 456.45,-1066.67 514.47,-1066.67 514.47,-1066.67 520.47,-1066.67 526.47,-1072.67 526.47,-1078.67 526.47,-1078.67 526.47,-1091.81 526.47,-1091.81 526.47,-1097.81 520.47,-1103.81 514.47,-1103.81"/>
<text text-anchor="middle" x="485.46" y="-1089.99" font-family="sans-serif" font-size="10.00" fill="white">download_gaez</text>
<text text-anchor="middle" x="485.46" y="-1075.74" font-family="sans-serif" font-size="10.00" fill="white">suitability_data</text>
</g>
<!-- 5&#45;&gt;3 -->
<g id="edge30" class="edge">
<title>5&#45;&gt;3</title>
<path fill="none" stroke="#999999" stroke-width="1.5" d="M514.86,-1066.75C521.69,-1061.56 528.65,-1055.59 534.35,-1049.24 560.73,-1019.83 582.56,-979.5 595.31,-953.16"/>
<polygon fill="#999999" stroke="#999999" stroke-width="1.5" points="597.52,-954.22 598.31,-946.85 593.09,-952.12 597.52,-954.22"/>
</g>
<!-- 15 -->
<g id="node16" class="node">
<title>15</title>
<path fill="#3b745f" stroke="#d85656" stroke-width="0" d="M638.99,-1282.81C638.99,-1282.81 577.97,-1282.81 577.97,-1282.81 571.97,-1282.81 565.97,-1276.81 565.97,-1270.81 565.97,-1270.81 565.97,-1257.67 565.97,-1257.67 565.97,-1251.67 571.97,-1245.67 577.97,-1245.67 577.97,-1245.67 638.99,-1245.67 638.99,-1245.67 644.99,-1245.67 650.99,-1251.67 650.99,-1257.67 650.99,-1257.67 650.99,-1270.81 650.99,-1270.81 650.99,-1276.81 644.99,-1282.81 638.99,-1282.81"/>
<text text-anchor="middle" x="608.48" y="-1268.99" font-family="sans-serif" font-size="10.00" fill="white">aggregate_class</text>
<text text-anchor="middle" x="608.48" y="-1254.74" font-family="sans-serif" font-size="10.00" fill="white">areas</text>
</g>
<!-- 5&#45;&gt;15 -->
<g id="edge41" class="edge">
<title>5&#45;&gt;15</title>
<path fill="none" stroke="#999999" stroke-width="1.5" d="M523.02,-1103.77C527.19,-1106.88 531.09,-1110.37 534.35,-1114.24 557.1,-1141.26 547.99,-1156.43 563.35,-1188.24 571.63,-1205.4 582.34,-1223.9 591.13,-1238.35"/>
<polygon fill="#999999" stroke="#999999" stroke-width="1.5" points="588.85,-1239.32 594.6,-1244 593.02,-1236.75 588.85,-1239.32"/>
</g>
<!-- 6 -->
<g id="node7" class="node">
<title>6</title>
<path fill="#3b745f" stroke="#88d856" stroke-width="0" d="M516.35,-878.93C516.35,-878.93 454.58,-878.93 454.58,-878.93 448.58,-878.93 442.58,-872.93 442.58,-866.93 442.58,-866.93 442.58,-839.54 442.58,-839.54 442.58,-833.54 448.58,-827.54 454.58,-827.54 454.58,-827.54 516.35,-827.54 516.35,-827.54 522.35,-827.54 528.35,-833.54 528.35,-839.54 528.35,-839.54 528.35,-866.93 528.35,-866.93 528.35,-872.93 522.35,-878.93 516.35,-878.93"/>
<text text-anchor="middle" x="485.46" y="-865.11" font-family="sans-serif" font-size="10.00" fill="white">download_gaez</text>
<text text-anchor="middle" x="485.46" y="-850.86" font-family="sans-serif" font-size="10.00" fill="white">growing_season</text>
<text text-anchor="middle" x="485.46" y="-836.61" font-family="sans-serif" font-size="10.00" fill="white">start</text>
</g>
<!-- 6&#45;&gt;3 -->
<g id="edge34" class="edge">
<title>6&#45;&gt;3</title>
<path fill="none" stroke="#999999" stroke-width="1.5" d="M528.11,-878.36C542.29,-886.91 558,-896.39 571.67,-904.64"/>
<polygon fill="#999999" stroke="#999999" stroke-width="1.5" points="570.26,-906.65 577.52,-908.16 572.79,-902.45 570.26,-906.65"/>
</g>
<!-- 7 -->
<g id="node8" class="node">
<title>7</title>
<path fill="#3b745f" stroke="#8fd856" stroke-width="0" d="M516.35,-805.93C516.35,-805.93 454.58,-805.93 454.58,-805.93 448.58,-805.93 442.58,-799.93 442.58,-793.93 442.58,-793.93 442.58,-766.54 442.58,-766.54 442.58,-760.54 448.58,-754.54 454.58,-754.54 454.58,-754.54 516.35,-754.54 516.35,-754.54 522.35,-754.54 528.35,-760.54 528.35,-766.54 528.35,-766.54 528.35,-793.93 528.35,-793.93 528.35,-799.93 522.35,-805.93 516.35,-805.93"/>
<text text-anchor="middle" x="485.46" y="-792.11" font-family="sans-serif" font-size="10.00" fill="white">download_gaez</text>
<text text-anchor="middle" x="485.46" y="-777.86" font-family="sans-serif" font-size="10.00" fill="white">growing_season</text>
<text text-anchor="middle" x="485.46" y="-763.61" font-family="sans-serif" font-size="10.00" fill="white">length</text>
</g>
<!-- 7&#45;&gt;3 -->
<g id="edge29" class="edge">
<title>7&#45;&gt;3</title>
<path fill="none" stroke="#999999" stroke-width="1.5" d="M523.14,-805.73C527.1,-809.07 530.92,-812.61 534.35,-816.24 558.57,-841.9 580.09,-876.45 593.41,-899.93"/>
<polygon fill="#999999" stroke="#999999" stroke-width="1.5" points="591.12,-900.85 596.67,-905.76 595.4,-898.46 591.12,-900.85"/>
</g>
<!-- 8&#45;&gt;3 -->
<g id="edge35" class="edge">
<title>8&#45;&gt;3</title>
<path fill="none" stroke="#999999" stroke-width="1.5" d="M524.92,-1364.68C528.55,-1361.63 531.82,-1358.16 534.35,-1354.24 563.49,-1309.1 553.97,-1167.13 563.35,-1114.24 573.6,-1056.42 590.48,-989.71 600.13,-953.34"/>
<polygon fill="#999999" stroke="#999999" stroke-width="1.5" points="602.39,-954.36 601.83,-946.97 597.66,-953.1 602.39,-954.36"/>
</g>
<!-- 8&#45;&gt;15 -->
<g id="edge44" class="edge">
<title>8&#45;&gt;15</title>
<path fill="none" stroke="#999999" stroke-width="1.5" d="M520.46,-1364.67C525.32,-1361.45 530.1,-1357.94 534.35,-1354.24 540.5,-1348.88 568.16,-1314.26 587.63,-1289.56"/>
<polygon fill="#999999" stroke="#999999" stroke-width="1.5" points="589.33,-1291.37 591.73,-1284.36 585.48,-1288.34 589.33,-1291.37"/>
</g>
<!-- 24 -->
<g id="node25" class="node">
<title>24</title>
<path fill="#3b745f" stroke="#d87d56" stroke-width="0" d="M637.49,-653.81C637.49,-653.81 579.47,-653.81 579.47,-653.81 573.47,-653.81 567.47,-647.81 567.47,-641.81 567.47,-641.81 567.47,-628.67 567.47,-628.67 567.47,-622.67 573.47,-616.67 579.47,-616.67 579.47,-616.67 637.49,-616.67 637.49,-616.67 643.49,-616.67 649.49,-622.67 649.49,-628.67 649.49,-628.67 649.49,-641.81 649.49,-641.81 649.49,-647.81 643.49,-653.81 637.49,-653.81"/>
<text text-anchor="middle" x="608.48" y="-639.99" font-family="sans-serif" font-size="10.00" fill="white">build_grassland</text>
<text text-anchor="middle" x="608.48" y="-625.74" font-family="sans-serif" font-size="10.00" fill="white">yields</text>
</g>
<!-- 8&#45;&gt;24 -->
<g id="edge49" class="edge">
<title>8&#45;&gt;24</title>
<path fill="none" stroke="#999999" stroke-width="1.5" d="M525.23,-1364.87C528.81,-1361.78 531.97,-1358.25 534.35,-1354.24 612.26,-1222.53 489.95,-800.51 563.35,-666.24 564.57,-664 566.03,-661.9 567.66,-659.91"/>
<polygon fill="#999999" stroke="#999999" stroke-width="1.5" points="569.07,-661.98 572.21,-655.26 565.56,-658.55 569.07,-661.98"/>
</g>
<!-- 37 -->
<g id="node38" class="node">
<title>37</title>
<path fill="#3b745f" stroke="#56d8c9" stroke-width="0" d="M633.74,-1454.81C633.74,-1454.81 583.22,-1454.81 583.22,-1454.81 577.22,-1454.81 571.22,-1448.81 571.22,-1442.81 571.22,-1442.81 571.22,-1429.67 571.22,-1429.67 571.22,-1423.67 577.22,-1417.67 583.22,-1417.67 583.22,-1417.67 633.74,-1417.67 633.74,-1417.67 639.74,-1417.67 645.74,-1423.67 645.74,-1429.67 645.74,-1429.67 645.74,-1442.81 645.74,-1442.81 645.74,-1448.81 639.74,-1454.81 633.74,-1454.81"/>
<text text-anchor="middle" x="608.48" y="-1440.99" font-family="sans-serif" font-size="10.00" fill="white">plot_resource</text>
<text text-anchor="middle" x="608.48" y="-1426.74" font-family="sans-serif" font-size="10.00" fill="white">classes_map</text>
</g>
<!-- 8&#45;&gt;37 -->
<g id="edge70" class="edge">
<title>8&#45;&gt;37</title>
<path fill="none" stroke="#999999" stroke-width="1.5" d="M528.79,-1401.77C539.87,-1406.63 551.85,-1411.87 563.04,-1416.77"/>
<polygon fill="#999999" stroke="#999999" stroke-width="1.5" points="561.94,-1418.96 569.33,-1419.53 563.9,-1414.48 561.94,-1418.96"/>
</g>
<!-- 8&#45;&gt;39 -->
<g id="edge76" class="edge">
<title>8&#45;&gt;39</title>
<path fill="none" stroke="#999999" stroke-width="1.5" d="M534.04,-1383.24C582.23,-1383.24 658.92,-1383.24 725.25,-1383.24 725.25,-1383.24 725.25,-1383.24 846.52,-1383.24 914.06,-1383.24 934.63,-1383.1 995.68,-1354.24 1015.41,-1344.91 1034.33,-1329.3 1048.37,-1315.95"/>
<polygon fill="#999999" stroke="#999999" stroke-width="1.5" points="1049.93,-1317.85 1053.23,-1311.21 1046.51,-1314.34 1049.93,-1317.85"/>
</g>
<!-- 8&#45;&gt;40 -->
<g id="edge80" class="edge">
<title>8&#45;&gt;40</title>
<path fill="none" stroke="#999999" stroke-width="1.5" d="M533.97,-1368.56C581.79,-1355.09 657.92,-1337.24 725.25,-1337.24 725.25,-1337.24 725.25,-1337.24 846.52,-1337.24 927.12,-1337.24 1003.22,-1272.22 1043.02,-1231.44"/>
<polygon fill="#999999" stroke="#999999" stroke-width="1.5" points="1044.68,-1233.26 1047.75,-1226.51 1041.14,-1229.86 1044.68,-1233.26"/>
</g>
<!-- 9 -->
<g id="node10" class="node">
<title>9</title>
<path fill="#3b745f" stroke="#d89556" stroke-width="0" d="M391.08,-669.24C391.08,-669.24 342.06,-669.24 342.06,-669.24 336.06,-669.24 330.06,-663.24 330.06,-657.24 330.06,-657.24 330.06,-645.24 330.06,-645.24 330.06,-639.24 336.06,-633.24 342.06,-633.24 342.06,-633.24 391.08,-633.24 391.08,-633.24 397.08,-633.24 403.08,-639.24 403.08,-645.24 403.08,-645.24 403.08,-657.24 403.08,-657.24 403.08,-663.24 397.08,-669.24 391.08,-669.24"/>
<text text-anchor="middle" x="366.57" y="-648.86" font-family="sans-serif" font-size="10.00" fill="white">build_regions</text>
</g>
<!-- 9&#45;&gt;2 -->
<g id="edge23" class="edge">
<title>9&#45;&gt;2</title>
<path fill="none" stroke="#999999" stroke-width="1.5" d="M403.02,-656.16C445.58,-662.64 513.8,-675.02 534.35,-690.24 554.99,-705.53 542.63,-725.06 563.35,-740.24 639.22,-795.81 680.06,-758.39 769.89,-786.24 780.94,-789.66 792.66,-794.02 803.45,-798.33"/>
<polygon fill="#999999" stroke="#999999" stroke-width="1.5" points="802.37,-800.54 809.77,-800.91 804.22,-796 802.37,-800.54"/>
</g>
<!-- 9&#45;&gt;3 -->
<g id="edge31" class="edge">
<title>9&#45;&gt;3</title>
<path fill="none" stroke="#999999" stroke-width="1.5" d="M398.01,-669.2C409.98,-676.18 423.87,-684.18 436.58,-691.24 479.6,-715.14 501.49,-706.6 534.35,-743.24 575.38,-788.98 594.84,-860.61 602.79,-899.29"/>
<polygon fill="#999999" stroke="#999999" stroke-width="1.5" points="600.3,-899.31 604.05,-905.7 605.11,-898.36 600.3,-899.31"/>
</g>
<!-- 9&#45;&gt;8 -->
<g id="edge37" class="edge">
<title>9&#45;&gt;8</title>
<path fill="none" stroke="#999999" stroke-width="1.5" d="M369.55,-668.94C375.56,-722.94 394.03,-890.33 407.58,-1029.24 414.62,-1101.4 398.21,-1292.71 436.58,-1354.24 437.43,-1355.6 438.37,-1356.9 439.38,-1358.16"/>
<polygon fill="#999999" stroke="#999999" stroke-width="1.5" points="437.63,-1359.88 444.29,-1363.14 441.12,-1356.43 437.63,-1359.88"/>
</g>
<!-- 9&#45;&gt;15 -->
<g id="edge42" class="edge">
<title>9&#45;&gt;15</title>
<path fill="none" stroke="#999999" stroke-width="1.5" d="M369.42,-669.1C379.41,-765.27 426.84,-1217.6 436.58,-1228.24 466.62,-1261.06 518.37,-1268.08 557.08,-1268.1"/>
<polygon fill="#999999" stroke="#999999" stroke-width="1.5" points="556.88,-1270.55 563.85,-1268.01 556.81,-1265.65 556.88,-1270.55"/>
</g>
<!-- 9&#45;&gt;24 -->
<g id="edge48" class="edge">
<title>9&#45;&gt;24</title>
<path fill="none" stroke="#999999" stroke-width="1.5" d="M402.97,-648.88C444.07,-646.14 512.1,-641.6 558.31,-638.52"/>
<polygon fill="#999999" stroke="#999999" stroke-width="1.5" points="558.45,-640.96 565.27,-638.05 558.12,-636.07 558.45,-640.96"/>
</g>
<!-- 9&#45;&gt;26 -->
<g id="edge52" class="edge">
<title>9&#45;&gt;26</title>
<path fill="none" stroke="#999999" stroke-width="1.5" d="M369.42,-669.12C375.85,-728.35 398.96,-916.97 436.58,-963.24 499.87,-1041.08 619.66,-1074.01 683.21,-1086.49"/>
<polygon fill="#999999" stroke="#999999" stroke-width="1.5" points="682.6,-1088.87 689.93,-1087.77 683.51,-1084.06 682.6,-1088.87"/>
</g>
<!-- 30 -->
<g id="node31" class="node">
<title>30</title>
<path fill="#3b745f" stroke="#56a2d8" stroke-width="0" d="M874.53,-398.81C874.53,-398.81 816.51,-398.81 816.51,-398.81 810.51,-398.81 804.51,-392.81 804.51,-386.81 804.51,-386.81 804.51,-373.67 804.51,-373.67 804.51,-367.67 810.51,-361.67 816.51,-361.67 816.51,-361.67 874.53,-361.67 874.53,-361.67 880.53,-361.67 886.53,-367.67 886.53,-373.67 886.53,-373.67 886.53,-386.81 886.53,-386.81 886.53,-392.81 880.53,-398.81 874.53,-398.81"/>
<text text-anchor="middle" x="845.52" y="-384.99" font-family="sans-serif" font-size="10.00" fill="white">prepare_health</text>
<text text-anchor="middle" x="845.52" y="-370.74" font-family="sans-serif" font-size="10.00" fill="white">costs</text>
</g>
<!-- 9&#45;&gt;30 -->
<g id="edge59" class="edge">
<title>9&#45;&gt;30</title>
<path fill="none" stroke="#999999" stroke-width="1.5" d="M372.19,-633.47C380.91,-602.31 402.08,-536.83 436.58,-491.24 521.61,-378.86 549.83,-338.4 682.62,-291.24 719.17,-278.26 734.74,-274.84 769.89,-291.24 797.32,-304.03 818.24,-332.41 830.85,-353.71"/>
<polygon fill="#999999" stroke="#999999" stroke-width="1.5" points="828.72,-354.91 834.31,-359.79 832.98,-352.49 828.72,-354.91"/>
</g>
<!-- 9&#45;&gt;35 -->
<g id="edge66" class="edge">
<title>9&#45;&gt;35</title>
<path fill="none" stroke="#999999" stroke-width="1.5" d="M371.82,-633.4C379.45,-605.78 398.4,-553.55 436.58,-531.24 440.58,-528.9 765.26,-528.28 769.89,-528.24 863.98,-527.35 974.57,-526.23 1032.26,-525.64"/>
<polygon fill="#999999" stroke="#999999" stroke-width="1.5" points="1032.14,-528.09 1039.12,-525.57 1032.09,-523.19 1032.14,-528.09"/>
</g>
<!-- 36 -->
<g id="node37" class="node">
<title>36</title>
<path fill="#3b745f" stroke="#56d8c1" stroke-width="0" d="M880.16,-50.24C880.16,-50.24 810.89,-50.24 810.89,-50.24 804.89,-50.24 798.89,-44.24 798.89,-38.24 798.89,-38.24 798.89,-26.24 798.89,-26.24 798.89,-20.24 804.89,-14.24 810.89,-14.24 810.89,-14.24 880.16,-14.24 880.16,-14.24 886.16,-14.24 892.16,-20.24 892.16,-26.24 892.16,-26.24 892.16,-38.24 892.16,-38.24 892.16,-44.24 886.16,-50.24 880.16,-50.24"/>
<text text-anchor="middle" x="845.52" y="-29.86" font-family="sans-serif" font-size="10.00" fill="white">plot_regions_map</text>
</g>
<!-- 9&#45;&gt;36 -->
<g id="edge68" class="edge">
<title>9&#45;&gt;36</title>
<path fill="none" stroke="#999999" stroke-width="1.5" d="M368.37,-633.26C372.7,-539.33 394.78,-107.72 436.58,-67.24 531.27,24.47 702.83,1.68 790.21,-17.85"/>
<polygon fill="#999999" stroke="#999999" stroke-width="1.5" points="789.58,-20.22 796.95,-19.4 790.68,-15.44 789.58,-20.22"/>
</g>
<!-- 9&#45;&gt;37 -->
<g id="edge69" class="edge">
<title>9&#45;&gt;37</title>
<path fill="none" stroke="#999999" stroke-width="1.5" d="M369.63,-668.93C375.89,-722.91 394.98,-890.24 407.58,-1029.24 411.44,-1071.85 407.22,-1382.11 436.58,-1413.24 468.05,-1446.61 523.07,-1448.27 562.18,-1444.23"/>
<polygon fill="#999999" stroke="#999999" stroke-width="1.5" points="562.34,-1446.68 569,-1443.43 561.76,-1441.81 562.34,-1446.68"/>
</g>
<!-- 9&#45;&gt;38 -->
<g id="edge72" class="edge">
<title>9&#45;&gt;38</title>
<path fill="none" stroke="#999999" stroke-width="1.5" d="M367.36,-633.3C366.83,-553 368.94,-227.48 436.58,-158.24 490.37,-103.18 530.51,-130.24 607.48,-130.24 607.48,-130.24 607.48,-130.24 846.52,-130.24 927.34,-130.24 948.32,-168.76 995.68,-234.24 1022.05,-270.7 997.27,-295.55 1024.68,-331.24 1025.92,-332.85 1027.27,-334.39 1028.71,-335.86"/>
<polygon fill="#999999" stroke="#999999" stroke-width="1.5" points="1026.96,-337.58 1033.82,-340.39 1030.2,-333.91 1026.96,-337.58"/>
</g>
<!-- 9&#45;&gt;39 -->
<g id="edge75" class="edge">
<title>9&#45;&gt;39</title>
<path fill="none" stroke="#999999" stroke-width="1.5" d="M369.67,-668.93C376.03,-722.89 395.39,-890.2 407.58,-1029.24 411.64,-1075.51 406.77,-1410.62 436.58,-1446.24 486.85,-1506.3 529.16,-1489.24 607.48,-1489.24 607.48,-1489.24 607.48,-1489.24 727.25,-1489.24 855.36,-1489.24 892.08,-1459.59 995.68,-1384.24 1020.56,-1366.14 1042.03,-1338.05 1055.77,-1317.47"/>
<polygon fill="#999999" stroke="#999999" stroke-width="1.5" points="1057.82,-1318.82 1059.59,-1311.61 1053.71,-1316.14 1057.82,-1318.82"/>
</g>
<!-- 9&#45;&gt;40 -->
<g id="edge79" class="edge">
<title>9&#45;&gt;40</title>
<path fill="none" stroke="#999999" stroke-width="1.5" d="M369.54,-669.09C379.76,-761.25 426.61,-1179.31 436.58,-1188.24 480.21,-1227.3 888.61,-1209.12 1026.55,-1201.79"/>
<polygon fill="#999999" stroke="#999999" stroke-width="1.5" points="1026.5,-1204.25 1033.36,-1201.43 1026.24,-1199.36 1026.5,-1204.25"/>
</g>
<!-- 9&#45;&gt;42 -->
<g id="edge83" class="edge">
<title>9&#45;&gt;42</title>
<path fill="none" stroke="#999999" stroke-width="1.5" d="M367.21,-633.34C365.92,-549.33 364.83,-195.02 436.58,-118.24 489.46,-61.66 530.04,-84.24 607.48,-84.24 607.48,-84.24 607.48,-84.24 846.52,-84.24 918.15,-84.24 943.4,-96.29 995.68,-145.24 1000.83,-150.06 1039.12,-231.17 1059.36,-274.47"/>
<polygon fill="#999999" stroke="#999999" stroke-width="1.5" points="1057.13,-275.48 1062.31,-280.79 1061.57,-273.41 1057.13,-275.48"/>
</g>
<!-- 9&#45;&gt;44 -->
<g id="edge88" class="edge">
<title>9&#45;&gt;44</title>
<path fill="none" stroke="#999999" stroke-width="1.5" d="M368.87,-633.35C375.83,-552.16 415.91,-222.24 607.48,-222.24 607.48,-222.24 607.48,-222.24 846.52,-222.24 924.88,-222.24 945.74,-255.85 995.68,-316.24 1018.19,-343.46 1008.86,-358.65 1024.68,-390.24 1033.3,-407.46 1044.64,-425.83 1054.03,-440.2"/>
<polygon fill="#999999" stroke="#999999" stroke-width="1.5" points="1051.86,-441.36 1057.76,-445.84 1055.94,-438.65 1051.86,-441.36"/>
</g>
<!-- 45 -->
<g id="node46" class="node">
<title>45</title>
<path fill="#3b745f" stroke="#56d8a2" stroke-width="0" d="M983.68,-378.93C983.68,-378.93 933.16,-378.93 933.16,-378.93 927.16,-378.93 921.16,-372.93 921.16,-366.93 921.16,-366.93 921.16,-339.54 921.16,-339.54 921.16,-333.54 927.16,-327.54 933.16,-327.54 933.16,-327.54 983.68,-327.54 983.68,-327.54 989.68,-327.54 995.68,-333.54 995.68,-339.54 995.68,-339.54 995.68,-366.93 995.68,-366.93 995.68,-372.93 989.68,-378.93 983.68,-378.93"/>
<text text-anchor="middle" x="958.42" y="-365.11" font-family="sans-serif" font-size="10.00" fill="white">plot_food</text>
<text text-anchor="middle" x="958.42" y="-350.86" font-family="sans-serif" font-size="10.00" fill="white">consumption</text>
<text text-anchor="middle" x="958.42" y="-336.61" font-family="sans-serif" font-size="10.00" fill="white">baseline_map</text>
</g>
<!-- 9&#45;&gt;45 -->
<g id="edge91" class="edge">
<title>9&#45;&gt;45</title>
<path fill="none" stroke="#999999" stroke-width="1.5" d="M367.41,-633.24C367.13,-557 370.4,-261.97 436.58,-205.24 582.16,-80.45 826.41,-248.48 919.67,-321.93"/>
<polygon fill="#999999" stroke="#999999" stroke-width="1.5" points="918.13,-323.83 925.13,-326.26 921.18,-319.99 918.13,-323.83"/>
</g>
<!-- 10 -->
<g id="node11" class="node">
<title>10</title>
<path fill="#3b745f" stroke="#566bd8" stroke-width="0" d="M284.56,-669.24C284.56,-669.24 231.04,-669.24 231.04,-669.24 225.04,-669.24 219.04,-663.24 219.04,-657.24 219.04,-657.24 219.04,-645.24 219.04,-645.24 219.04,-639.24 225.04,-633.24 231.04,-633.24 231.04,-633.24 284.56,-633.24 284.56,-633.24 290.56,-633.24 296.56,-639.24 296.56,-645.24 296.56,-645.24 296.56,-657.24 296.56,-657.24 296.56,-663.24 290.56,-669.24 284.56,-669.24"/>
<text text-anchor="middle" x="257.8" y="-648.86" font-family="sans-serif" font-size="10.00" fill="white">simplify_gadm</text>
</g>
<!-- 10&#45;&gt;9 -->
<g id="edge38" class="edge">
<title>10&#45;&gt;9</title>
<path fill="none" stroke="#999999" stroke-width="1.5" d="M296.44,-651.24C304.47,-651.24 313.02,-651.24 321.27,-651.24"/>
<polygon fill="#999999" stroke="#999999" stroke-width="1.5" points="321.14,-653.69 328.14,-651.24 321.14,-648.79 321.14,-653.69"/>
</g>
<!-- 11 -->
<g id="node12" class="node">
<title>11</title>
<path fill="#3b745f" stroke="#56d863" stroke-width="0" d="M178.04,-669.24C178.04,-669.24 128.27,-669.24 128.27,-669.24 122.27,-669.24 116.27,-663.24 116.27,-657.24 116.27,-657.24 116.27,-645.24 116.27,-645.24 116.27,-639.24 122.27,-633.24 128.27,-633.24 128.27,-633.24 178.04,-633.24 178.04,-633.24 184.04,-633.24 190.04,-639.24 190.04,-645.24 190.04,-645.24 190.04,-657.24 190.04,-657.24 190.04,-663.24 184.04,-669.24 178.04,-669.24"/>
<text text-anchor="middle" x="153.15" y="-648.86" font-family="sans-serif" font-size="10.00" fill="white">extract_adm1</text>
</g>
<!-- 11&#45;&gt;10 -->
<g id="edge39" class="edge">
<title>11&#45;&gt;10</title>
<path fill="none" stroke="#999999" stroke-width="1.5" d="M189.77,-651.24C196.3,-651.24 203.2,-651.24 210,-651.24"/>
<polygon fill="#999999" stroke="#999999" stroke-width="1.5" points="209.88,-653.69 216.88,-651.24 209.88,-648.79 209.88,-653.69"/>
</g>
<!-- 12 -->
<g id="node13" class="node">
<title>12</title>
<path fill="#3b745f" stroke="#9fd856" stroke-width="0" d="M75.27,-669.81C75.27,-669.81 12,-669.81 12,-669.81 6,-669.81 0,-663.81 0,-657.81 0,-657.81 0,-644.67 0,-644.67 0,-638.67 6,-632.67 12,-632.67 12,-632.67 75.27,-632.67 75.27,-632.67 81.27,-632.67 87.27,-638.67 87.27,-644.67 87.27,-644.67 87.27,-657.81 87.27,-657.81 87.27,-663.81 81.27,-669.81 75.27,-669.81"/>
<text text-anchor="middle" x="43.63" y="-655.99" font-family="sans-serif" font-size="10.00" fill="white">download_gadm</text>
<text text-anchor="middle" x="43.63" y="-641.74" font-family="sans-serif" font-size="10.00" fill="white">zip</text>
</g>
<!-- 12&#45;&gt;11 -->
<g id="edge40" class="edge">
<title>12&#45;&gt;11</title>
<path fill="none" stroke="#999999" stroke-width="1.5" d="M87.13,-651.24C93.83,-651.24 100.77,-651.24 107.52,-651.24"/>
<polygon fill="#999999" stroke="#999999" stroke-width="1.5" points="107.28,-653.69 114.28,-651.24 107.28,-648.79 107.28,-653.69"/>
</g>
<!-- 13 -->
<g id="node14" class="node">
<title>13</title>
<path fill="#3b745f" stroke="#70d856" stroke-width="0" d="M520.85,-951.93C520.85,-951.93 450.08,-951.93 450.08,-951.93 444.08,-951.93 438.08,-945.93 438.08,-939.93 438.08,-939.93 438.08,-912.54 438.08,-912.54 438.08,-906.54 444.08,-900.54 450.08,-900.54 450.08,-900.54 520.85,-900.54 520.85,-900.54 526.85,-900.54 532.85,-906.54 532.85,-912.54 532.85,-912.54 532.85,-939.93 532.85,-939.93 532.85,-945.93 526.85,-951.93 520.85,-951.93"/>
<text text-anchor="middle" x="485.46" y="-938.11" font-family="sans-serif" font-size="10.00" fill="white">download_gaez</text>
<text text-anchor="middle" x="485.46" y="-923.86" font-family="sans-serif" font-size="10.00" fill="white">water</text>
<text text-anchor="middle" x="485.46" y="-909.61" font-family="sans-serif" font-size="10.00" fill="white">requirement_data</text>
</g>
<!-- 13&#45;&gt;3 -->
<g id="edge32" class="edge">
<title>13&#45;&gt;3</title>
<path fill="none" stroke="#999999" stroke-width="1.5" d="M532.56,-926.24C545,-926.24 558.3,-926.24 570.19,-926.24"/>
<polygon fill="#999999" stroke="#999999" stroke-width="1.5" points="570.12,-928.69 577.12,-926.24 570.12,-923.79 570.12,-928.69"/>
</g>
<!-- 14 -->
<g id="node15" class="node">
<title>14</title>
<path fill="#3b745f" stroke="#5673d8" stroke-width="0" d="M751.51,-834.81C751.51,-834.81 700.99,-834.81 700.99,-834.81 694.99,-834.81 688.99,-828.81 688.99,-822.81 688.99,-822.81 688.99,-809.67 688.99,-809.67 688.99,-803.67 694.99,-797.67 700.99,-797.67 700.99,-797.67 751.51,-797.67 751.51,-797.67 757.51,-797.67 763.51,-803.67 763.51,-809.67 763.51,-809.67 763.51,-822.81 763.51,-822.81 763.51,-828.81 757.51,-834.81 751.51,-834.81"/>
<text text-anchor="middle" x="726.25" y="-820.99" font-family="sans-serif" font-size="10.00" fill="white">retrieve_usda</text>
<text text-anchor="middle" x="726.25" y="-806.74" font-family="sans-serif" font-size="10.00" fill="white">nutrition</text>
</g>
<!-- 14&#45;&gt;2 -->
<g id="edge27" class="edge">
<title>14&#45;&gt;2</title>
<path fill="none" stroke="#999999" stroke-width="1.5" d="M763.4,-816.24C775.85,-816.24 789.9,-816.24 802.77,-816.24"/>
<polygon fill="#999999" stroke="#999999" stroke-width="1.5" points="802.62,-818.69 809.62,-816.24 802.62,-813.79 802.62,-818.69"/>
</g>
<!-- 15&#45;&gt;2 -->
<g id="edge21" class="edge">
<title>15&#45;&gt;2</title>
<path fill="none" stroke="#999999" stroke-width="1.5" d="M623.04,-1245.91C633.23,-1231.12 646.6,-1209.38 653.62,-1188.24 688.89,-1082.09 621.04,-1031.62 682.62,-938.24 707.23,-900.92 734.14,-915.07 769.89,-888.24 788.87,-873.99 808.09,-855.33 822.27,-840.57"/>
<polygon fill="#999999" stroke="#999999" stroke-width="1.5" points="823.81,-842.51 826.85,-835.75 820.26,-839.14 823.81,-842.51"/>
</g>
<!-- 15&#45;&gt;39 -->
<g id="edge74" class="edge">
<title>15&#45;&gt;39</title>
<path fill="none" stroke="#999999" stroke-width="1.5" d="M650.92,-1266.66C737.62,-1271.72 937.51,-1283.39 1027.03,-1288.62"/>
<polygon fill="#999999" stroke="#999999" stroke-width="1.5" points="1026.71,-1291.06 1033.85,-1289.02 1027,-1286.17 1026.71,-1291.06"/>
</g>
<!-- 15&#45;&gt;40 -->
<g id="edge78" class="edge">
<title>15&#45;&gt;40</title>
<path fill="none" stroke="#999999" stroke-width="1.5" d="M650.83,-1260.42C721.71,-1253.57 870.86,-1237.88 995.68,-1216.24 1005.9,-1214.47 1016.81,-1212.23 1027.1,-1209.97"/>
<polygon fill="#999999" stroke="#999999" stroke-width="1.5" points="1027.43,-1212.41 1033.72,-1208.49 1026.36,-1207.63 1027.43,-1212.41"/>
</g>
<!-- 16 -->
<g id="node17" class="node">
<title>16</title>
<path fill="#3b745f" stroke="#80d856" stroke-width="0" d="M514.47,-1342.93C514.47,-1342.93 456.45,-1342.93 456.45,-1342.93 450.45,-1342.93 444.45,-1336.93 444.45,-1330.93 444.45,-1330.93 444.45,-1303.54 444.45,-1303.54 444.45,-1297.54 450.45,-1291.54 456.45,-1291.54 456.45,-1291.54 514.47,-1291.54 514.47,-1291.54 520.47,-1291.54 526.47,-1297.54 526.47,-1303.54 526.47,-1303.54 526.47,-1330.93 526.47,-1330.93 526.47,-1336.93 520.47,-1342.93 514.47,-1342.93"/>
<text text-anchor="middle" x="485.46" y="-1329.11" font-family="sans-serif" font-size="10.00" fill="white">download_gaez</text>
<text text-anchor="middle" x="485.46" y="-1314.86" font-family="sans-serif" font-size="10.00" fill="white">irrigated</text>
<text text-anchor="middle" x="485.46" y="-1300.61" font-family="sans-serif" font-size="10.00" fill="white">landshare_map</text>
</g>
<!-- 16&#45;&gt;15 -->
<g id="edge43" class="edge">
<title>16&#45;&gt;15</title>
<path fill="none" stroke="#999999" stroke-width="1.5" d="M526.43,-1299.74C536.53,-1295.31 547.5,-1290.51 558.02,-1285.9"/>
<polygon fill="#999999" stroke="#999999" stroke-width="1.5" points="558.81,-1288.23 564.24,-1283.18 556.85,-1283.74 558.81,-1288.23"/>
</g>
<!-- 17 -->
<g id="node18" class="node">
<title>17</title>
<path fill="#3b745f" stroke="#56c1d8" stroke-width="0" d="M753.76,-728.81C753.76,-728.81 698.74,-728.81 698.74,-728.81 692.74,-728.81 686.74,-722.81 686.74,-716.81 686.74,-716.81 686.74,-703.67 686.74,-703.67 686.74,-697.67 692.74,-691.67 698.74,-691.67 698.74,-691.67 753.76,-691.67 753.76,-691.67 759.76,-691.67 765.76,-697.67 765.76,-703.67 765.76,-703.67 765.76,-716.81 765.76,-716.81 765.76,-722.81 759.76,-728.81 753.76,-728.81"/>
<text text-anchor="middle" x="726.25" y="-714.99" font-family="sans-serif" font-size="10.00" fill="white">prepare_fao</text>
<text text-anchor="middle" x="726.25" y="-700.74" font-family="sans-serif" font-size="10.00" fill="white">edible_portion</text>
</g>
<!-- 17&#45;&gt;2 -->
<g id="edge17" class="edge">
<title>17&#45;&gt;2</title>
<path fill="none" stroke="#999999" stroke-width="1.5" d="M749.57,-728.71C756.17,-734.27 763.38,-740.44 769.89,-746.24 786.65,-761.16 805.05,-778.4 819.38,-792.04"/>
<polygon fill="#999999" stroke="#999999" stroke-width="1.5" points="817.67,-793.79 824.42,-796.85 821.05,-790.24 817.67,-793.79"/>
</g>
<!-- 18 -->
<g id="node19" class="node">
<title>18</title>
<path fill="#3b745f" stroke="#a7d856" stroke-width="0" d="M641.62,-728.93C641.62,-728.93 575.35,-728.93 575.35,-728.93 569.35,-728.93 563.35,-722.93 563.35,-716.93 563.35,-716.93 563.35,-689.54 563.35,-689.54 563.35,-683.54 569.35,-677.54 575.35,-677.54 575.35,-677.54 641.62,-677.54 641.62,-677.54 647.62,-677.54 653.62,-683.54 653.62,-689.54 653.62,-689.54 653.62,-716.93 653.62,-716.93 653.62,-722.93 647.62,-728.93 641.62,-728.93"/>
<text text-anchor="middle" x="608.48" y="-715.11" font-family="sans-serif" font-size="10.00" fill="white">download_fao</text>
<text text-anchor="middle" x="608.48" y="-700.86" font-family="sans-serif" font-size="10.00" fill="white">nutrient</text>
<text text-anchor="middle" x="608.48" y="-686.61" font-family="sans-serif" font-size="10.00" fill="white">conversion_table</text>
</g>
<!-- 18&#45;&gt;17 -->
<g id="edge45" class="edge">
<title>18&#45;&gt;17</title>
<path fill="none" stroke="#999999" stroke-width="1.5" d="M653.58,-705.9C661.48,-706.38 669.75,-706.88 677.74,-707.36"/>
<polygon fill="#999999" stroke="#999999" stroke-width="1.5" points="677.55,-709.81 684.69,-707.79 677.85,-704.92 677.55,-709.81"/>
</g>
<!-- 19 -->
<g id="node20" class="node">
<title>19</title>
<path fill="#3b745f" stroke="#5692d8" stroke-width="0" d="M744.76,-622.81C744.76,-622.81 707.74,-622.81 707.74,-622.81 701.74,-622.81 695.74,-616.81 695.74,-610.81 695.74,-610.81 695.74,-597.67 695.74,-597.67 695.74,-591.67 701.74,-585.67 707.74,-585.67 707.74,-585.67 744.76,-585.67 744.76,-585.67 750.76,-585.67 756.76,-591.67 756.76,-597.67 756.76,-597.67 756.76,-610.81 756.76,-610.81 756.76,-616.81 750.76,-622.81 744.76,-622.81"/>
<text text-anchor="middle" x="726.25" y="-608.99" font-family="sans-serif" font-size="10.00" fill="white">prepare</text>
<text text-anchor="middle" x="726.25" y="-594.74" font-family="sans-serif" font-size="10.00" fill="white">population</text>
</g>
<!-- 19&#45;&gt;1 -->
<g id="edge15" class="edge">
<title>19&#45;&gt;1</title>
<path fill="none" stroke="#999999" stroke-width="1.5" d="M756.41,-609.94C796.55,-617.79 869.11,-631.97 915.19,-640.98"/>
<polygon fill="#999999" stroke="#999999" stroke-width="1.5" points="914.47,-643.34 921.81,-642.28 915.41,-638.53 914.47,-643.34"/>
</g>
<!-- 19&#45;&gt;2 -->
<g id="edge22" class="edge">
<title>19&#45;&gt;2</title>
<path fill="none" stroke="#999999" stroke-width="1.5" d="M754.04,-622.66C759.95,-627.77 765.69,-633.73 769.89,-640.24 795.45,-679.83 779.9,-699.1 798.89,-742.24 806.43,-759.37 817.38,-777.27 826.66,-791.18"/>
<polygon fill="#999999" stroke="#999999" stroke-width="1.5" points="824.37,-792.17 830.34,-796.58 828.43,-789.42 824.37,-792.17"/>
</g>
<!-- 19&#45;&gt;30 -->
<g id="edge58" class="edge">
<title>19&#45;&gt;30</title>
<path fill="none" stroke="#999999" stroke-width="1.5" d="M739.35,-585.86C748.77,-570.87 761.59,-548.87 769.89,-528.24 789.07,-480.53 770.79,-459.3 798.89,-416.24 801.58,-412.12 804.9,-408.26 808.51,-404.72"/>
<polygon fill="#999999" stroke="#999999" stroke-width="1.5" points="809.98,-406.69 813.56,-400.2 806.71,-403.04 809.98,-406.69"/>
</g>
<!-- 19&#45;&gt;35 -->
<g id="edge65" class="edge">
<title>19&#45;&gt;35</title>
<path fill="none" stroke="#999999" stroke-width="1.5" d="M756.67,-603.91C806.96,-602.56 912.1,-596.28 995.68,-568.24 1003.71,-565.54 1019.2,-557.03 1034.12,-548.29"/>
<polygon fill="#999999" stroke="#999999" stroke-width="1.5" points="1035.1,-550.55 1039.87,-544.88 1032.6,-546.34 1035.1,-550.55"/>
</g>
<!-- 19&#45;&gt;43 -->
<g id="edge85" class="edge">
<title>19&#45;&gt;43</title>
<path fill="none" stroke="#999999" stroke-width="1.5" d="M756.72,-621.96C769.47,-629.29 784.69,-637.61 798.89,-644.24 877.89,-681.11 973.88,-715.36 1028.4,-733.89"/>
<polygon fill="#999999" stroke="#999999" stroke-width="1.5" points="1027.55,-736.18 1034.96,-736.1 1029.12,-731.54 1027.55,-736.18"/>
</g>
<!-- 19&#45;&gt;44 -->
<g id="edge87" class="edge">
<title>19&#45;&gt;44</title>
<path fill="none" stroke="#999999" stroke-width="1.5" d="M756.63,-592.47C814.38,-569.34 943.46,-517.65 1017.27,-488.08"/>
<polygon fill="#999999" stroke="#999999" stroke-width="1.5" points="1017.86,-490.49 1023.44,-485.61 1016.03,-485.94 1017.86,-490.49"/>
</g>
<!-- 19&#45;&gt;45 -->
<g id="edge90" class="edge">
<title>19&#45;&gt;45</title>
<path fill="none" stroke="#999999" stroke-width="1.5" d="M738.28,-585.77C747.21,-570.55 759.9,-548.28 769.89,-528.24 784.19,-499.57 777.33,-485.94 798.89,-462.24 830.83,-427.13 853.35,-437.55 892.16,-410.24 903.05,-402.57 914.22,-393.39 924.17,-384.65"/>
<polygon fill="#999999" stroke="#999999" stroke-width="1.5" points="925.55,-386.7 929.15,-380.21 922.29,-383.04 925.55,-386.7"/>
</g>
<!-- 20 -->
<g id="node21" class="node">
<title>20</title>
<path fill="#3b745f" stroke="#56d85b" stroke-width="0" d="M636.74,-590.81C636.74,-590.81 580.22,-590.81 580.22,-590.81 574.22,-590.81 568.22,-584.81 568.22,-578.81 568.22,-578.81 568.22,-565.67 568.22,-565.67 568.22,-559.67 574.22,-553.67 580.22,-553.67 580.22,-553.67 636.74,-553.67 636.74,-553.67 642.74,-553.67 648.74,-559.67 648.74,-565.67 648.74,-565.67 648.74,-578.81 648.74,-578.81 648.74,-584.81 642.74,-590.81 636.74,-590.81"/>
<text text-anchor="middle" x="608.48" y="-576.99" font-family="sans-serif" font-size="10.00" fill="white">download_wpp</text>
<text text-anchor="middle" x="608.48" y="-562.74" font-family="sans-serif" font-size="10.00" fill="white">population</text>
</g>
<!-- 20&#45;&gt;19 -->
<g id="edge46" class="edge">
<title>20&#45;&gt;19</title>
<path fill="none" stroke="#999999" stroke-width="1.5" d="M648.68,-583.07C661.14,-586.52 674.89,-590.32 687.26,-593.74"/>
<polygon fill="#999999" stroke="#999999" stroke-width="1.5" points="686.4,-596.04 693.8,-595.54 687.7,-591.32 686.4,-596.04"/>
</g>
<!-- 33 -->
<g id="node34" class="node">
<title>33</title>
<path fill="#3b745f" stroke="#569ad8" stroke-width="0" d="M747.76,-398.81C747.76,-398.81 704.74,-398.81 704.74,-398.81 698.74,-398.81 692.74,-392.81 692.74,-386.81 692.74,-386.81 692.74,-373.67 692.74,-373.67 692.74,-367.67 698.74,-361.67 704.74,-361.67 704.74,-361.67 747.76,-361.67 747.76,-361.67 753.76,-361.67 759.76,-367.67 759.76,-373.67 759.76,-373.67 759.76,-386.81 759.76,-386.81 759.76,-392.81 753.76,-398.81 747.76,-398.81"/>
<text text-anchor="middle" x="726.25" y="-384.99" font-family="sans-serif" font-size="10.00" fill="white">prepare_life</text>
<text text-anchor="middle" x="726.25" y="-370.74" font-family="sans-serif" font-size="10.00" fill="white">table</text>
</g>
<!-- 20&#45;&gt;33 -->
<g id="edge62" class="edge">
<title>20&#45;&gt;33</title>
<path fill="none" stroke="#999999" stroke-width="1.5" d="M614.15,-553.82C623.05,-521.6 644.96,-454.16 682.62,-409.24 683.93,-407.68 685.34,-406.16 686.83,-404.7"/>
<polygon fill="#999999" stroke="#999999" stroke-width="1.5" points="688.38,-406.6 692.04,-400.14 685.16,-402.91 688.38,-406.6"/>
</g>
<!-- 21 -->
<g id="node22" class="node">
<title>21</title>
<path fill="#3b745f" stroke="#56a9d8" stroke-width="0" d="M753.01,-339.81C753.01,-339.81 699.49,-339.81 699.49,-339.81 693.49,-339.81 687.49,-333.81 687.49,-327.81 687.49,-327.81 687.49,-314.67 687.49,-314.67 687.49,-308.67 693.49,-302.67 699.49,-302.67 699.49,-302.67 753.01,-302.67 753.01,-302.67 759.01,-302.67 765.01,-308.67 765.01,-314.67 765.01,-314.67 765.01,-327.81 765.01,-327.81 765.01,-333.81 759.01,-339.81 753.01,-339.81"/>
<text text-anchor="middle" x="726.25" y="-325.99" font-family="sans-serif" font-size="10.00" fill="white">prepare_gdd</text>
<text text-anchor="middle" x="726.25" y="-311.74" font-family="sans-serif" font-size="10.00" fill="white">dietary_intake</text>
</g>
<!-- 21&#45;&gt;2 -->
<g id="edge24" class="edge">
<title>21&#45;&gt;2</title>
<path fill="none" stroke="#999999" stroke-width="1.5" d="M760.57,-339.65C764.15,-342.78 767.39,-346.31 769.89,-350.24 817.02,-424.39 837.56,-701.34 842.99,-789.27"/>
<polygon fill="#999999" stroke="#999999" stroke-width="1.5" points="840.53,-789.23 843.4,-796.07 845.42,-788.94 840.53,-789.23"/>
</g>
<!-- 21&#45;&gt;30 -->
<g id="edge60" class="edge">
<title>21&#45;&gt;30</title>
<path fill="none" stroke="#999999" stroke-width="1.5" d="M764.04,-339.74C775.39,-345.46 788.02,-351.81 799.84,-357.76"/>
<polygon fill="#999999" stroke="#999999" stroke-width="1.5" points="798.49,-359.82 805.84,-360.78 800.69,-355.44 798.49,-359.82"/>
</g>
<!-- 21&#45;&gt;45 -->
<g id="edge92" class="edge">
<title>21&#45;&gt;45</title>
<path fill="none" stroke="#999999" stroke-width="1.5" d="M765,-326.49C805.28,-332.09 869.08,-340.96 912.06,-346.93"/>
<polygon fill="#999999" stroke="#999999" stroke-width="1.5" points="911.65,-349.35 918.92,-347.89 912.32,-344.49 911.65,-349.35"/>
</g>
<!-- 22 -->
<g id="node23" class="node">
<title>22</title>
<path fill="#3b745f" stroke="#56b9d8" stroke-width="0" d="M751.51,-1045.81C751.51,-1045.81 700.99,-1045.81 700.99,-1045.81 694.99,-1045.81 688.99,-1039.81 688.99,-1033.81 688.99,-1033.81 688.99,-1020.67 688.99,-1020.67 688.99,-1014.67 694.99,-1008.67 700.99,-1008.67 700.99,-1008.67 751.51,-1008.67 751.51,-1008.67 757.51,-1008.67 763.51,-1014.67 763.51,-1020.67 763.51,-1020.67 763.51,-1033.81 763.51,-1033.81 763.51,-1039.81 757.51,-1045.81 751.51,-1045.81"/>
<text text-anchor="middle" x="726.25" y="-1031.99" font-family="sans-serif" font-size="10.00" fill="white">prepare_food</text>
<text text-anchor="middle" x="726.25" y="-1017.74" font-family="sans-serif" font-size="10.00" fill="white">loss_waste</text>
</g>
<!-- 22&#45;&gt;2 -->
<g id="edge28" class="edge">
<title>22&#45;&gt;2</title>
<path fill="none" stroke="#999999" stroke-width="1.5" d="M758.88,-1008.92C762.92,-1005.71 766.73,-1002.13 769.89,-998.24 808.36,-950.8 829.5,-880.82 838.76,-842.94"/>
<polygon fill="#999999" stroke="#999999" stroke-width="1.5" points="841.11,-843.62 840.33,-836.25 836.34,-842.5 841.11,-843.62"/>
</g>
<!-- 23 -->
<g id="node24" class="node">
<title>23</title>
<path fill="#3b745f" stroke="#567bd8" stroke-width="0" d="M756.76,-986.81C756.76,-986.81 695.74,-986.81 695.74,-986.81 689.74,-986.81 683.74,-980.81 683.74,-974.81 683.74,-974.81 683.74,-961.67 683.74,-961.67 683.74,-955.67 689.74,-949.67 695.74,-949.67 695.74,-949.67 756.76,-949.67 756.76,-949.67 762.76,-949.67 768.76,-955.67 768.76,-961.67 768.76,-961.67 768.76,-974.81 768.76,-974.81 768.76,-980.81 762.76,-986.81 756.76,-986.81"/>
<text text-anchor="middle" x="726.25" y="-972.99" font-family="sans-serif" font-size="10.00" fill="white">retrieve_faostat</text>
<text text-anchor="middle" x="726.25" y="-958.74" font-family="sans-serif" font-size="10.00" fill="white">prices</text>
</g>
<!-- 23&#45;&gt;2 -->
<g id="edge18" class="edge">
<title>23&#45;&gt;2</title>
<path fill="none" stroke="#999999" stroke-width="1.5" d="M751.42,-949.98C757.78,-944.61 764.39,-938.5 769.89,-932.24 794.77,-903.91 817.27,-866.55 830.92,-841.98"/>
<polygon fill="#999999" stroke="#999999" stroke-width="1.5" points="833.06,-843.17 834.27,-835.86 828.76,-840.82 833.06,-843.17"/>
</g>
<!-- 24&#45;&gt;2 -->
<g id="edge25" class="edge">
<title>24&#45;&gt;2</title>
<path fill="none" stroke="#999999" stroke-width="1.5" d="M649.41,-637.26C684.77,-641 735.92,-651.43 769.89,-680.24 793.09,-699.91 784.44,-715.47 798.89,-742.24 807.76,-758.67 818.72,-776.5 827.67,-790.54"/>
<polygon fill="#999999" stroke="#999999" stroke-width="1.5" points="825.6,-791.86 831.45,-796.43 829.73,-789.21 825.6,-791.86"/>
</g>
<!-- 25 -->
<g id="node26" class="node">
<title>25</title>
<path fill="#3b745f" stroke="#61d856" stroke-width="0" d="M514.1,-593.93C514.1,-593.93 456.83,-593.93 456.83,-593.93 450.83,-593.93 444.83,-587.93 444.83,-581.93 444.83,-581.93 444.83,-554.54 444.83,-554.54 444.83,-548.54 450.83,-542.54 456.83,-542.54 456.83,-542.54 514.1,-542.54 514.1,-542.54 520.1,-542.54 526.1,-548.54 526.1,-554.54 526.1,-554.54 526.1,-581.93 526.1,-581.93 526.1,-587.93 520.1,-593.93 514.1,-593.93"/>
<text text-anchor="middle" x="485.46" y="-580.11" font-family="sans-serif" font-size="10.00" fill="white">download</text>
<text text-anchor="middle" x="485.46" y="-565.86" font-family="sans-serif" font-size="10.00" fill="white">grassland_yield</text>
<text text-anchor="middle" x="485.46" y="-551.61" font-family="sans-serif" font-size="10.00" fill="white">data</text>
</g>
<!-- 25&#45;&gt;24 -->
<g id="edge47" class="edge">
<title>25&#45;&gt;24</title>
<path fill="none" stroke="#999999" stroke-width="1.5" d="M526.09,-590.18C538.99,-597.32 553.34,-605.26 566.35,-612.46"/>
<polygon fill="#999999" stroke="#999999" stroke-width="1.5" points="564.95,-614.49 572.26,-615.74 567.33,-610.21 564.95,-614.49"/>
</g>
<!-- 26&#45;&gt;2 -->
<g id="edge20" class="edge">
<title>26&#45;&gt;2</title>
<path fill="none" stroke="#999999" stroke-width="1.5" d="M760.45,-1068.67C763.96,-1065.11 767.22,-1061.28 769.89,-1057.24 815.59,-988.23 834.49,-889.77 841.25,-842.95"/>
<polygon fill="#999999" stroke="#999999" stroke-width="1.5" points="843.64,-843.56 842.17,-836.29 838.79,-842.89 843.64,-843.56"/>
</g>
<!-- 27 -->
<g id="node28" class="node">
<title>27</title>
<path fill="#3b745f" stroke="#56d86b" stroke-width="0" d="M513.72,-1176.93C513.72,-1176.93 457.2,-1176.93 457.2,-1176.93 451.2,-1176.93 445.2,-1170.93 445.2,-1164.93 445.2,-1164.93 445.2,-1137.54 445.2,-1137.54 445.2,-1131.54 451.2,-1125.54 457.2,-1125.54 457.2,-1125.54 513.72,-1125.54 513.72,-1125.54 519.72,-1125.54 525.72,-1131.54 525.72,-1137.54 525.72,-1137.54 525.72,-1164.93 525.72,-1164.93 525.72,-1170.93 519.72,-1176.93 513.72,-1176.93"/>
<text text-anchor="middle" x="485.46" y="-1163.11" font-family="sans-serif" font-size="10.00" fill="white">extract</text>
<text text-anchor="middle" x="485.46" y="-1148.86" font-family="sans-serif" font-size="10.00" fill="white">waterfootprint</text>
<text text-anchor="middle" x="485.46" y="-1134.61" font-family="sans-serif" font-size="10.00" fill="white">appendix</text>
</g>
<!-- 27&#45;&gt;26 -->
<g id="edge50" class="edge">
<title>27&#45;&gt;26</title>
<path fill="none" stroke="#999999" stroke-width="1.5" d="M525.4,-1129.53C537.27,-1123.73 550.57,-1118.03 563.35,-1114.24 602.96,-1102.47 649.97,-1097.3 683.1,-1095.02"/>
<polygon fill="#999999" stroke="#999999" stroke-width="1.5" points="682.96,-1097.48 689.79,-1094.6 682.65,-1092.59 682.96,-1097.48"/>
</g>
<!-- 29 -->
<g id="node30" class="node">
<title>29</title>
<path fill="#3b745f" stroke="#5682d8" stroke-width="0" d="M632.24,-1176.93C632.24,-1176.93 584.72,-1176.93 584.72,-1176.93 578.72,-1176.93 572.72,-1170.93 572.72,-1164.93 572.72,-1164.93 572.72,-1137.54 572.72,-1137.54 572.72,-1131.54 578.72,-1125.54 584.72,-1125.54 584.72,-1125.54 632.24,-1125.54 632.24,-1125.54 638.24,-1125.54 644.24,-1131.54 644.24,-1137.54 644.24,-1137.54 644.24,-1164.93 644.24,-1164.93 644.24,-1170.93 638.24,-1176.93 632.24,-1176.93"/>
<text text-anchor="middle" x="608.48" y="-1163.11" font-family="sans-serif" font-size="10.00" fill="white">process_blue</text>
<text text-anchor="middle" x="608.48" y="-1148.86" font-family="sans-serif" font-size="10.00" fill="white">water</text>
<text text-anchor="middle" x="608.48" y="-1134.61" font-family="sans-serif" font-size="10.00" fill="white">availability</text>
</g>
<!-- 27&#45;&gt;29 -->
<g id="edge55" class="edge">
<title>27&#45;&gt;29</title>
<path fill="none" stroke="#999999" stroke-width="1.5" d="M525.42,-1151.24C537.77,-1151.24 551.49,-1151.24 564.12,-1151.24"/>
<polygon fill="#999999" stroke="#999999" stroke-width="1.5" points="563.82,-1153.69 570.82,-1151.24 563.82,-1148.79 563.82,-1153.69"/>
</g>
<!-- 28 -->
<g id="node29" class="node">
<title>28</title>
<path fill="#3b745f" stroke="#59d856" stroke-width="0" d="M394.83,-1176.93C394.83,-1176.93 338.31,-1176.93 338.31,-1176.93 332.31,-1176.93 326.31,-1170.93 326.31,-1164.93 326.31,-1164.93 326.31,-1137.54 326.31,-1137.54 326.31,-1131.54 332.31,-1125.54 338.31,-1125.54 338.31,-1125.54 394.83,-1125.54 394.83,-1125.54 400.83,-1125.54 406.83,-1131.54 406.83,-1137.54 406.83,-1137.54 406.83,-1164.93 406.83,-1164.93 406.83,-1170.93 400.83,-1176.93 394.83,-1176.93"/>
<text text-anchor="middle" x="366.57" y="-1163.11" font-family="sans-serif" font-size="10.00" fill="white">download</text>
<text text-anchor="middle" x="366.57" y="-1148.86" font-family="sans-serif" font-size="10.00" fill="white">waterfootprint</text>
<text text-anchor="middle" x="366.57" y="-1134.61" font-family="sans-serif" font-size="10.00" fill="white">appendix</text>
</g>
<!-- 28&#45;&gt;27 -->
<g id="edge54" class="edge">
<title>28&#45;&gt;27</title>
<path fill="none" stroke="#999999" stroke-width="1.5" d="M406.82,-1151.24C416.27,-1151.24 426.47,-1151.24 436.28,-1151.24"/>
<polygon fill="#999999" stroke="#999999" stroke-width="1.5" points="436.25,-1153.69 443.25,-1151.24 436.25,-1148.79 436.25,-1153.69"/>
</g>
<!-- 29&#45;&gt;2 -->
<g id="edge26" class="edge">
<title>29&#45;&gt;2</title>
<path fill="none" stroke="#999999" stroke-width="1.5" d="M644.15,-1157.08C680.16,-1161.03 735.89,-1160.9 769.89,-1130.24 812.81,-1091.53 835.02,-911.3 842.03,-842.77"/>
<polygon fill="#999999" stroke="#999999" stroke-width="1.5" points="844.44,-843.34 842.69,-836.13 839.56,-842.85 844.44,-843.34"/>
</g>
<!-- 29&#45;&gt;26 -->
<g id="edge51" class="edge">
<title>29&#45;&gt;26</title>
<path fill="none" stroke="#999999" stroke-width="1.5" d="M644.22,-1133.84C656.8,-1127.54 671.12,-1120.36 684.18,-1113.81"/>
<polygon fill="#999999" stroke="#999999" stroke-width="1.5" points="684.94,-1116.17 690.1,-1110.85 682.75,-1111.79 684.94,-1116.17"/>
</g>
<!-- 30&#45;&gt;1 -->
<g id="edge16" class="edge">
<title>30&#45;&gt;1</title>
<path fill="none" stroke="#999999" stroke-width="1.5" d="M854.15,-398.73C873.43,-445.5 924.21,-568.67 946.58,-622.93"/>
<polygon fill="#999999" stroke="#999999" stroke-width="1.5" points="944.24,-623.69 949.17,-629.23 948.77,-621.82 944.24,-623.69"/>
</g>
<!-- 30&#45;&gt;35 -->
<g id="edge67" class="edge">
<title>30&#45;&gt;35</title>
<path fill="none" stroke="#999999" stroke-width="1.5" d="M867.69,-398.8C882.25,-411.18 902.3,-427.46 921.16,-440.24 957.79,-465.05 1002.16,-489.46 1033.23,-505.71"/>
<polygon fill="#999999" stroke="#999999" stroke-width="1.5" points="1031.87,-507.76 1039.21,-508.82 1034.12,-503.41 1031.87,-507.76"/>
</g>
<!-- 30&#45;&gt;44 -->
<g id="edge89" class="edge">
<title>30&#45;&gt;44</title>
<path fill="none" stroke="#999999" stroke-width="1.5" d="M886.28,-395.42C922.41,-409.21 976.07,-429.69 1016.4,-445.09"/>
<polygon fill="#999999" stroke="#999999" stroke-width="1.5" points="1015.52,-447.37 1022.93,-447.58 1017.27,-442.79 1015.52,-447.37"/>
</g>
<!-- 30&#45;&gt;45 -->
<g id="edge93" class="edge">
<title>30&#45;&gt;45</title>
<path fill="none" stroke="#999999" stroke-width="1.5" d="M886.25,-370.57C894.73,-368.5 903.76,-366.3 912.43,-364.19"/>
<polygon fill="#999999" stroke="#999999" stroke-width="1.5" points="912.87,-366.61 919.09,-362.57 911.71,-361.85 912.87,-366.61"/>
</g>
<!-- 31 -->
<g id="node32" class="node">
<title>31</title>
<path fill="#3b745f" stroke="#568ad8" stroke-width="0" d="M757.89,-516.81C757.89,-516.81 694.62,-516.81 694.62,-516.81 688.62,-516.81 682.62,-510.81 682.62,-504.81 682.62,-504.81 682.62,-491.67 682.62,-491.67 682.62,-485.67 688.62,-479.67 694.62,-479.67 694.62,-479.67 757.89,-479.67 757.89,-479.67 763.89,-479.67 769.89,-485.67 769.89,-491.67 769.89,-491.67 769.89,-504.81 769.89,-504.81 769.89,-510.81 763.89,-516.81 757.89,-516.81"/>
<text text-anchor="middle" x="726.25" y="-502.99" font-family="sans-serif" font-size="10.00" fill="white">prepare_relative</text>
<text text-anchor="middle" x="726.25" y="-488.74" font-family="sans-serif" font-size="10.00" fill="white">risks</text>
</g>
<!-- 31&#45;&gt;30 -->
<g id="edge57" class="edge">
<title>31&#45;&gt;30</title>
<path fill="none" stroke="#999999" stroke-width="1.5" d="M758.05,-479.93C762.3,-476.67 766.4,-473.08 769.89,-469.24 787.94,-449.36 781.56,-436.74 798.89,-416.24 802.31,-412.19 806.25,-408.29 810.35,-404.64"/>
<polygon fill="#999999" stroke="#999999" stroke-width="1.5" points="811.82,-406.61 815.6,-400.23 808.67,-402.86 811.82,-406.61"/>
</g>
<!-- 32 -->
<g id="node33" class="node">
<title>32</title>
<path fill="#3b745f" stroke="#56b1d8" stroke-width="0" d="M749.64,-457.81C749.64,-457.81 702.87,-457.81 702.87,-457.81 696.87,-457.81 690.87,-451.81 690.87,-445.81 690.87,-445.81 690.87,-432.67 690.87,-432.67 690.87,-426.67 696.87,-420.67 702.87,-420.67 702.87,-420.67 749.64,-420.67 749.64,-420.67 755.64,-420.67 761.64,-426.67 761.64,-432.67 761.64,-432.67 761.64,-445.81 761.64,-445.81 761.64,-451.81 755.64,-457.81 749.64,-457.81"/>
<text text-anchor="middle" x="726.25" y="-443.99" font-family="sans-serif" font-size="10.00" fill="white">prepare_gbd</text>
<text text-anchor="middle" x="726.25" y="-429.74" font-family="sans-serif" font-size="10.00" fill="white">mortality</text>
</g>
<!-- 32&#45;&gt;30 -->
<g id="edge56" class="edge">
<title>32&#45;&gt;30</title>
<path fill="none" stroke="#999999" stroke-width="1.5" d="M761.49,-422.01C773.47,-415.99 787.1,-409.13 799.81,-402.74"/>
<polygon fill="#999999" stroke="#999999" stroke-width="1.5" points="800.82,-404.97 805.97,-399.64 798.62,-400.59 800.82,-404.97"/>
</g>
<!-- 33&#45;&gt;30 -->
<g id="edge61" class="edge">
<title>33&#45;&gt;30</title>
<path fill="none" stroke="#999999" stroke-width="1.5" d="M759.61,-380.24C770.74,-380.24 783.46,-380.24 795.61,-380.24"/>
<polygon fill="#999999" stroke="#999999" stroke-width="1.5" points="795.48,-382.69 802.48,-380.24 795.48,-377.79 795.48,-382.69"/>
</g>
<!-- 34&#45;&gt;0 -->
<g id="edge11" class="edge">
<title>34&#45;&gt;0</title>
<path fill="none" stroke="#999999" stroke-width="1.5" d="M1104.74,-625.38C1116.58,-618.53 1130.16,-610.69 1142.25,-603.71"/>
<polygon fill="#999999" stroke="#999999" stroke-width="1.5" points="1143.15,-606.01 1147.99,-600.39 1140.7,-601.77 1143.15,-606.01"/>
</g>
<!-- 35&#45;&gt;0 -->
<g id="edge8" class="edge">
<title>35&#45;&gt;0</title>
<path fill="none" stroke="#999999" stroke-width="1.5" d="M1104.18,-542.78C1116.14,-549.69 1129.93,-557.65 1142.2,-564.74"/>
<polygon fill="#999999" stroke="#999999" stroke-width="1.5" points="1140.76,-566.74 1148.05,-568.12 1143.21,-562.5 1140.76,-566.74"/>
</g>
<!-- 36&#45;&gt;0 -->
<g id="edge3" class="edge">
<title>36&#45;&gt;0</title>
<path fill="none" stroke="#999999" stroke-width="1.5" d="M892.05,-33.86C923.71,-37.02 965.49,-45.44 995.68,-67.24 1081.95,-129.52 1083.24,-171.75 1120.95,-271.24 1159.23,-372.23 1171.13,-501.78 1174.61,-557.17"/>
<polygon fill="#999999" stroke="#999999" stroke-width="1.5" points="1172.15,-557.21 1175.01,-564.05 1177.05,-556.92 1172.15,-557.21"/>
</g>
<!-- 37&#45;&gt;0 -->
<g id="edge1" class="edge">
<title>37&#45;&gt;0</title>
<path fill="none" stroke="#999999" stroke-width="1.5" d="M645.58,-1442.22C743.83,-1456.16 1015.68,-1478.58 1120.95,-1321.24 1161.11,-1261.22 1173.17,-736.77 1175.5,-611.18"/>
<polygon fill="#999999" stroke="#999999" stroke-width="1.5" points="1177.94,-611.5 1175.62,-604.46 1173.04,-611.41 1177.94,-611.5"/>
</g>
<!-- 38&#45;&gt;0 -->
<g id="edge2" class="edge">
<title>38&#45;&gt;0</title>
<path fill="none" stroke="#999999" stroke-width="1.5" d="M1103.9,-378.64C1110.25,-383.69 1116.4,-389.62 1120.95,-396.24 1155.46,-446.51 1168.61,-518.59 1173.39,-557.26"/>
<polygon fill="#999999" stroke="#999999" stroke-width="1.5" points="1170.94,-557.41 1174.17,-564.09 1175.81,-556.85 1170.94,-557.41"/>
</g>
<!-- 39&#45;&gt;0 -->
<g id="edge9" class="edge">
<title>39&#45;&gt;0</title>
<path fill="none" stroke="#999999" stroke-width="1.5" d="M1094.66,-1272.95C1104.4,-1263.11 1115.12,-1250.16 1120.95,-1236.24 1169.38,-1120.52 1175.18,-719.2 1175.86,-611.19"/>
<polygon fill="#999999" stroke="#999999" stroke-width="1.5" points="1178.31,-611.23 1175.9,-604.22 1173.41,-611.2 1178.31,-611.23"/>
</g>
<!-- 40&#45;&gt;0 -->
<g id="edge10" class="edge">
<title>40&#45;&gt;0</title>
<path fill="none" stroke="#999999" stroke-width="1.5" d="M1078.07,-1173.6C1094.62,-1073.94 1154.58,-712.91 1171.49,-611.12"/>
<polygon fill="#999999" stroke="#999999" stroke-width="1.5" points="1173.88,-611.64 1172.61,-604.34 1169.05,-610.84 1173.88,-611.64"/>
</g>
<!-- 41&#45;&gt;0 -->
<g id="edge12" class="edge">
<title>41&#45;&gt;0</title>
<path fill="none" stroke="#999999" stroke-width="1.5" d="M1110.4,-584.24C1120.38,-584.24 1131.16,-584.24 1141.04,-584.24"/>
<polygon fill="#999999" stroke="#999999" stroke-width="1.5" points="1140.91,-586.69 1147.91,-584.24 1140.91,-581.79 1140.91,-586.69"/>
</g>
<!-- 42&#45;&gt;0 -->
<g id="edge5" class="edge">
<title>42&#45;&gt;0</title>
<path fill="none" stroke="#999999" stroke-width="1.5" d="M1110.86,-319.74C1114.68,-322.82 1118.17,-326.32 1120.95,-330.24 1170.82,-400.66 1176.88,-507.62 1176.75,-557.22"/>
<polygon fill="#999999" stroke="#999999" stroke-width="1.5" points="1174.3,-557.06 1176.67,-564.08 1179.2,-557.11 1174.3,-557.06"/>
</g>
<!-- 43&#45;&gt;0 -->
<g id="edge13" class="edge">
<title>43&#45;&gt;0</title>
<path fill="none" stroke="#999999" stroke-width="1.5" d="M1102.84,-729.8C1109.38,-724.69 1115.89,-718.73 1120.95,-712.24 1145.13,-681.22 1160.79,-637.96 1168.99,-610.53"/>
<polygon fill="#999999" stroke="#999999" stroke-width="1.5" points="1171.27,-611.46 1170.86,-604.05 1166.56,-610.1 1171.27,-611.46"/>
</g>
<!-- 44&#45;&gt;0 -->
<g id="edge6" class="edge">
<title>44&#45;&gt;0</title>
<path fill="none" stroke="#999999" stroke-width="1.5" d="M1108.2,-484.72C1112.74,-487.91 1117.14,-491.44 1120.95,-495.24 1139.35,-513.6 1154.36,-539.24 1164.03,-558.28"/>
<polygon fill="#999999" stroke="#999999" stroke-width="1.5" points="1161.79,-559.29 1167.08,-564.48 1166.18,-557.12 1161.79,-559.29"/>
</g>
<!-- 45&#45;&gt;0 -->
<g id="edge4" class="edge">
<title>45&#45;&gt;0</title>
<path fill="none" stroke="#999999" stroke-width="1.5" d="M995.42,-374.24C1004.87,-379.59 1015.1,-385.24 1024.68,-390.24 1066.72,-412.17 1088.96,-401.23 1120.95,-436.24 1152.59,-470.86 1166.51,-525.32 1172.26,-557.63"/>
<polygon fill="#999999" stroke="#999999" stroke-width="1.5" points="1169.79,-557.77 1173.36,-564.27 1174.63,-556.96 1169.79,-557.77"/>
</g>
</g>
</svg>
